<svg width="210" height="65" viewBox="0 0 210 65" fill="none" xmlns="http://www.w3.org/2000/svg">
<path d="M201.895 64.7612H7.60414C3.66673 64.7612 0.476074 61.3738 0.476074 57.1937V8.3288C0.476074 4.14862 3.66673 0.76123 7.60414 0.76123H201.895C205.832 0.76123 209.023 4.14862 209.023 8.3288V57.1937C209.023 61.3738 205.832 64.7612 201.895 64.7612Z" fill="black"/>
<path d="M72.553 17.1168L71.7535 14.4581C71.5574 13.8014 71.3914 13.0687 71.2406 12.4441H71.2104C71.0633 13.0687 70.9087 13.8175 70.7314 14.4581L69.9469 17.1168H72.553ZM69.6452 18.6022L68.7702 21.6613H66.8543L70.1129 10.8745H72.4776L75.7776 21.6613H73.7901L72.8698 18.6022" fill="white"/>
<path d="M78.5491 13.8711L79.7408 17.819C79.952 18.5077 80.0991 19.1324 80.2349 19.773H80.2802C80.4159 19.1324 80.5819 18.5237 80.778 17.819L81.9547 13.8711H83.897L81.0948 21.6629H79.2732L76.5426 13.8711" fill="white"/>
<path d="M89.4903 17.8505C88.1779 17.8345 86.9258 18.1228 86.9258 19.308C86.9258 20.0767 87.3934 20.4291 87.9818 20.4291C88.7323 20.4291 89.2641 19.9166 89.4413 19.356C89.4903 19.2119 89.4903 19.0677 89.4903 18.9236V17.8505ZM91.2969 19.7884C91.2969 20.4931 91.3271 21.1818 91.4176 21.6583H89.743L89.611 20.7974H89.562C89.1283 21.402 88.3589 21.8345 87.3934 21.8345C85.915 21.8345 85.0891 20.7013 85.0891 19.5162C85.0891 17.5622 86.7296 16.5572 89.4413 16.5732V16.4451C89.4413 15.9326 89.249 15.0837 87.9516 15.0837C87.2275 15.0837 86.4732 15.324 85.9753 15.6603L85.6133 14.379C86.1564 14.0267 87.1068 13.6943 88.2684 13.6943C90.618 13.6943 91.2969 15.2759 91.2969 16.9896" fill="white"/>
<path d="M93.9179 13.8699H95.7697V21.6617H93.9179V13.8699ZM94.8344 12.7488C94.2196 12.7488 93.8123 12.2683 93.8123 11.6917C93.8123 11.0831 94.2309 10.6187 94.8532 10.6187C95.483 10.6187 95.8753 11.0831 95.8904 11.6917C95.8904 12.2683 95.483 12.7488 94.8532 12.7488" fill="white"/>
<path d="M98.4363 21.6621H100.292V10.2827H98.4363V21.6621Z" fill="white"/>
<path d="M106.862 17.8505C105.549 17.8345 104.297 18.1228 104.297 19.308C104.297 20.0767 104.765 20.4291 105.353 20.4291C106.108 20.4291 106.636 19.9166 106.817 19.356C106.862 19.2119 106.862 19.0677 106.862 18.9236V17.8505ZM108.668 19.7884C108.668 20.4931 108.699 21.1818 108.789 21.6583H107.118L106.983 20.7974H106.937C106.5 21.402 105.731 21.8345 104.765 21.8345C103.29 21.8345 102.461 20.7013 102.461 19.5162C102.461 17.5622 104.105 16.5572 106.817 16.5732V16.4451C106.817 15.9326 106.621 15.0837 105.323 15.0837C104.599 15.0837 103.845 15.324 103.351 15.6603L102.989 14.379C103.532 14.0267 104.478 13.6943 105.64 13.6943C107.99 13.6943 108.668 15.2759 108.668 16.9896" fill="white"/>
<path d="M113.146 18.4429C113.146 18.603 113.161 18.7632 113.191 18.9073C113.387 19.7081 114.036 20.2847 114.832 20.2847C115.993 20.2847 116.702 19.3077 116.702 17.7262C116.702 16.3488 116.084 15.2277 114.847 15.2277C114.092 15.2277 113.402 15.8042 113.206 16.6691C113.176 16.8132 113.146 16.9894 113.146 17.1816V18.4429ZM111.29 10.2827H113.146V14.9394H113.176C113.628 14.1866 114.424 13.6941 115.525 13.6941C117.321 13.6941 118.599 15.2757 118.584 17.6461C118.584 20.4449 116.913 21.8383 115.254 21.8383C114.304 21.8383 113.462 21.4539 112.934 20.4929H112.904L112.814 21.6621H111.23C111.26 21.1336 111.29 20.2687 111.29 19.4839" fill="white"/>
<path d="M120.767 21.6621H122.619V10.2827H120.767V21.6621Z" fill="white"/>
<path d="M129.838 16.9416C129.853 16.2209 129.551 15.0357 128.318 15.0357C127.171 15.0357 126.688 16.1408 126.613 16.9416H129.838ZM126.613 18.315C126.658 19.7244 127.699 20.333 128.876 20.333C129.732 20.333 130.335 20.1888 130.909 19.9806L131.18 21.322C130.547 21.6143 129.672 21.8185 128.619 21.8185C126.236 21.8185 124.833 20.2689 124.833 17.8865C124.833 15.7244 126.07 13.6943 128.423 13.6943C130.803 13.6943 131.588 15.7724 131.588 17.4861C131.588 17.8545 131.557 18.1428 131.527 18.315" fill="white"/>
<path d="M140.793 20.4131C141.845 20.4131 142.585 19.324 142.585 17.7424C142.585 16.5252 142.072 15.1158 140.808 15.1158C139.496 15.1158 138.968 16.4771 138.968 17.7744C138.968 19.2759 139.677 20.4131 140.774 20.4131H140.793ZM140.733 21.8385C138.666 21.8385 137.056 20.333 137.056 17.8225C137.056 15.2599 138.636 13.6943 140.854 13.6943C143.037 13.6943 144.501 15.324 144.501 17.6943C144.501 20.5572 142.6 21.8385 140.748 21.8385" fill="white"/>
<path d="M146.681 16.1888C146.681 15.2919 146.655 14.5392 146.624 13.8665H148.235L148.325 15.0357H148.371C148.702 14.4271 149.502 13.6943 150.724 13.6943C152.003 13.6943 153.33 14.5712 153.33 17.0377V21.6583H151.475V17.2619C151.475 16.1408 151.082 15.2919 150.075 15.2919C149.336 15.2919 148.823 15.8525 148.627 16.4451C148.567 16.6052 148.537 16.8455 148.537 17.0697V21.6583H146.681" fill="white"/>
<path d="M161.872 11.8682V13.8662H163.633V15.3396H161.872V18.7631C161.872 19.724 162.114 20.2045 162.819 20.2045C163.151 20.2045 163.332 20.1885 163.543 20.1244L163.573 21.6099C163.302 21.726 162.804 21.8181 162.23 21.8181C161.54 21.8181 160.982 21.5779 160.635 21.1815C160.228 20.733 160.047 20.0123 160.047 18.9873V15.3396H159.006V13.8662H160.047V12.4127" fill="white"/>
<path d="M165.697 10.2827H167.552V14.9234H167.583C167.809 14.555 168.126 14.2507 168.503 14.0425C168.88 13.8223 169.314 13.6941 169.781 13.6941C171.034 13.6941 172.342 14.571 172.342 17.0695V21.6621H170.49V17.2777C170.49 16.1566 170.098 15.2917 169.072 15.2917C168.352 15.2917 167.839 15.8042 167.628 16.3968C167.568 16.573 167.552 16.7812 167.552 16.9894V21.6621H165.697" fill="white"/>
<path d="M179.516 16.9416C179.531 16.2209 179.229 15.0357 177.992 15.0357C176.846 15.0357 176.367 16.1408 176.291 16.9416H179.516ZM176.291 18.315C176.336 19.7244 177.374 20.333 178.55 20.333C179.41 20.333 180.014 20.1888 180.583 19.9806L180.858 21.322C180.225 21.6143 179.35 21.8185 178.294 21.8185C175.914 21.8185 174.511 20.2689 174.511 17.8865C174.511 15.7244 175.748 13.6943 178.098 13.6943C180.478 13.6943 181.262 15.7724 181.262 17.4861C181.262 17.8545 181.232 18.1428 181.202 18.315" fill="white"/>
<path d="M46.5859 32.121C46.5369 26.7836 50.7006 24.185 50.893 24.0649C48.5358 20.4133 44.8812 19.9168 43.5952 19.8767C40.529 19.5364 37.5533 21.8307 35.9919 21.8307C34.3966 21.8307 31.9866 19.9128 29.3956 19.9688C26.0541 20.0249 22.9313 22.0789 21.2191 25.2621C17.689 31.7606 20.3215 41.3062 23.7082 46.5594C25.4054 49.13 27.3817 52.0049 29.9726 51.9007C32.5071 51.7886 33.4537 50.187 36.5124 50.187C39.5446 50.187 40.4347 51.9007 43.0785 51.8367C45.7977 51.7886 47.51 49.2541 49.143 46.6555C51.1042 43.7086 51.8886 40.8057 51.9188 40.6575C51.8547 40.6335 46.6388 38.5194 46.5859 32.121Z" fill="white"/>
<path d="M41.5928 16.4242C42.9543 14.6144 43.8934 12.1479 43.6294 9.64941C41.6569 9.74551 39.1904 11.0989 37.7685 12.8686C36.5126 14.4302 35.385 16.9888 35.6791 19.3912C37.8968 19.5673 40.171 18.206 41.5928 16.4242Z" fill="white"/>
<path d="M77.173 42.3112L75.423 36.5735C75.2382 35.9889 74.8913 34.6075 74.3783 32.4374H74.318C74.1143 33.3703 73.7825 34.7517 73.3337 36.5735L71.6139 42.3112H77.173ZM83.2224 51.4764H79.6886L77.7538 45.022H71.0331L69.1888 51.4764H65.7492L72.4172 29.5024H76.5281" fill="white"/>
<path d="M96.9807 43.4879C96.9807 41.9423 96.6526 40.6731 95.9963 39.6721C95.2798 38.631 94.318 38.1065 93.1112 38.1065C92.2928 38.1065 91.546 38.3988 90.886 38.9714C90.2222 39.552 89.7847 40.3047 89.5773 41.2416C89.4755 41.6741 89.4265 42.0304 89.4265 42.3107V44.9534C89.4265 46.1065 89.7583 47.0795 90.4221 47.8723C91.0897 48.6691 91.9533 49.0615 93.0169 49.0615C94.269 49.0615 95.2421 48.553 95.9322 47.5279C96.6337 46.5069 96.9807 45.1616 96.9807 43.4879ZM100.36 43.3558C100.36 46.0505 99.6735 48.1846 98.3007 49.7462C97.0712 51.1395 95.5438 51.8322 93.7259 51.8322C91.7572 51.8322 90.3467 51.0795 89.4868 49.582H89.4265V57.9303H86.1076V40.8453C86.1076 39.1516 86.0699 37.4138 85.9869 35.628H88.9022L89.087 38.1425H89.1511C90.2562 36.2487 91.9345 35.3037 94.186 35.3037C95.9435 35.3037 97.4182 36.0445 98.5911 37.5219C99.7678 39.0034 100.36 40.9454 100.36 43.3558Z" fill="white"/>
<path d="M114.144 43.4879C114.144 41.9423 113.816 40.6731 113.16 39.6721C112.443 38.631 111.482 38.1065 110.275 38.1065C109.456 38.1065 108.713 38.3988 108.05 38.9714C107.382 39.552 106.952 40.3047 106.749 41.2416C106.643 41.6741 106.594 42.0304 106.594 42.3107V44.9534C106.594 46.1065 106.922 47.0795 107.586 47.8723C108.253 48.6691 109.117 49.0615 110.184 49.0615C111.433 49.0615 112.406 48.553 113.1 47.5279C113.794 46.5069 114.144 45.1616 114.144 43.4879ZM117.52 43.3558C117.52 46.0505 116.837 48.1846 115.464 49.7462C114.235 51.1395 112.711 51.8322 110.89 51.8322C108.925 51.8322 107.514 51.0795 106.65 49.582H106.594V57.9303H103.275V40.8453C103.275 39.1516 103.234 37.4138 103.154 35.628H106.07L106.254 38.1425H106.319C107.42 36.2487 109.098 35.3037 111.35 35.3037C113.111 35.3037 114.578 36.0445 115.759 37.5219C116.935 39.0034 117.52 40.9454 117.52 43.3558Z" fill="white"/>
<path d="M136.717 45.3145C136.717 47.1803 136.106 48.7018 134.876 49.879C133.526 51.1603 131.652 51.8009 129.242 51.8009C127.013 51.8009 125.225 51.3445 123.871 50.4316L124.64 47.5006C126.1 48.4336 127.695 48.898 129.438 48.898C130.686 48.898 131.659 48.6017 132.357 48.0051C133.051 47.4045 133.398 46.6037 133.398 45.6027C133.398 44.7139 133.115 43.9571 132.542 43.3485C131.968 42.7399 131.014 42.1753 129.683 41.6508C126.058 40.2134 124.248 38.1113 124.248 35.3485C124.248 33.5427 124.882 32.0612 126.153 30.9081C127.42 29.7549 129.11 29.1743 131.218 29.1743C133.104 29.1743 134.669 29.5267 135.917 30.2194L135.087 33.0902C133.922 32.4176 132.602 32.0772 131.127 32.0772C129.958 32.0772 129.049 32.3815 128.397 32.9901C127.846 33.5347 127.567 34.1993 127.567 34.9801C127.567 35.849 127.88 36.5657 128.517 37.1303C129.068 37.6508 130.071 38.2154 131.527 38.828C133.307 39.5887 134.616 40.4776 135.457 41.4986C136.294 42.5197 136.717 43.7929 136.717 45.3145Z" fill="white"/>
<path d="M147.677 38.2707H144.022V45.9624C144.022 47.9203 144.667 48.8973 145.961 48.8973C146.549 48.8973 147.043 48.8452 147.432 48.7371L147.522 51.4078C146.873 51.6721 146.01 51.8002 144.946 51.8002C143.637 51.8002 142.612 51.3758 141.872 50.5309C141.137 49.6821 140.767 48.2567 140.767 46.2587V38.2707H138.587V35.628H140.767V32.7291L144.022 31.6841V35.628H147.677" fill="white"/>
<path d="M160.73 43.5359C160.73 42.0745 160.432 40.8252 159.836 39.7762C159.146 38.5109 158.15 37.8783 156.86 37.8783C155.529 37.8783 154.514 38.5109 153.82 39.7762C153.224 40.8252 152.934 42.0985 152.934 43.604C152.934 45.0655 153.224 46.3147 153.82 47.3598C154.537 48.625 155.54 49.2577 156.834 49.2577C158.097 49.2577 159.093 48.617 159.809 47.3277C160.424 46.2627 160.73 44.9974 160.73 43.5359ZM164.169 43.4238C164.169 45.8583 163.517 47.8563 162.204 49.4218C160.831 51.0314 159.01 51.8322 156.739 51.8322C154.544 51.8322 152.802 51.0595 151.501 49.5179C150.203 47.9764 149.555 46.0304 149.555 43.6841C149.555 41.2256 150.222 39.2156 151.565 37.6541C152.904 36.0845 154.71 35.3037 156.981 35.3037C159.172 35.3037 160.937 36.0765 162.265 37.618C163.536 39.1235 164.169 41.0535 164.169 43.4238Z" fill="white"/>
<path d="M174.948 38.7271C174.62 38.6631 174.273 38.631 173.904 38.631C172.738 38.631 171.833 39.0995 171.199 40.0324C170.649 40.8613 170.374 41.9023 170.374 43.1596V51.4759H167.058L167.085 40.621C167.085 38.7912 167.043 37.1295 166.964 35.628H169.853L169.974 38.6631H170.06C170.411 37.622 170.966 36.7812 171.72 36.1526C172.459 35.588 173.259 35.3037 174.119 35.3037C174.424 35.3037 174.703 35.3277 174.948 35.3678" fill="white"/>
<path d="M186.613 41.8911C186.635 40.85 186.42 39.9451 185.972 39.1844C185.398 38.2074 184.512 37.7149 183.328 37.7149C182.245 37.7149 181.363 38.1954 180.688 39.1523C180.137 39.9131 179.805 40.826 179.711 41.8911H186.613ZM189.773 42.804C189.773 43.4366 189.735 43.9652 189.656 44.4016H179.711C179.745 45.9672 180.228 47.1644 181.152 47.9892C181.989 48.7299 183.075 49.0943 184.406 49.0943C185.877 49.0943 187.22 48.846 188.431 48.3455L188.951 50.792C187.537 51.4406 185.87 51.773 183.942 51.773C181.631 51.773 179.813 51.0482 178.493 49.5988C177.176 48.1573 176.513 46.2154 176.513 43.781C176.513 41.3906 177.124 39.4006 178.357 37.815C179.643 36.1173 181.385 35.2725 183.573 35.2725C185.723 35.2725 187.356 36.1173 188.461 37.815C189.339 39.1603 189.773 40.826 189.773 42.804Z" fill="white"/>
</svg>
