<svg width="205" height="64" viewBox="0 0 205 64" fill="none" xmlns="http://www.w3.org/2000/svg">
<path d="M198.4 64H6.4C2.88 64 0 61.12 0 57.6V6.4C0 2.88 2.88 0 6.4 0H198.4C201.92 0 204.8 2.88 204.8 6.4V57.6C204.8 61.12 201.92 64 198.4 64Z" fill="black"/>
<path fill-rule="evenodd" clip-rule="evenodd" d="M15.6797 31.3598V14.5598C15.6797 13.5998 16.4797 12.7998 17.2797 12.7998C18.0797 12.7998 18.3997 12.9598 18.8797 13.2798L49.7597 30.2398C50.3997 30.5598 50.7197 31.0398 50.7197 31.5198C50.7197 31.9998 50.3997 32.4798 49.7597 32.7998L18.8797 49.7598C18.5597 49.9198 18.0797 50.2398 17.2797 50.2398C16.4797 50.2398 15.6797 49.4398 15.6797 48.4798V31.3598Z" fill="url(#paint0_linear_1_248)"/>
<path fill-rule="evenodd" clip-rule="evenodd" d="M35.6803 31.5198L16.9603 12.7998C17.1203 12.7998 17.1203 12.7998 17.2803 12.7998C18.0803 12.7998 18.4003 12.9598 18.8803 13.2798L41.6003 25.7598L35.6803 31.5198Z" fill="url(#paint1_linear_1_248)"/>
<path fill-rule="evenodd" clip-rule="evenodd" d="M41.4396 37.1199L35.6796 31.3599L41.5996 25.4399L49.7596 29.9199C50.3996 30.2399 50.7196 30.7199 50.7196 31.1999C50.7196 31.6799 50.3996 32.1599 49.7596 32.4799L41.4396 37.1199Z" fill="url(#paint2_linear_1_248)"/>
<path fill-rule="evenodd" clip-rule="evenodd" d="M17.1203 49.9204L35.6803 31.3604L41.4403 37.1204L18.8803 49.4404C18.4003 49.7604 18.0803 49.9204 17.1203 49.9204C17.2803 49.9204 17.2803 49.9204 17.1203 49.9204Z" fill="url(#paint3_linear_1_248)"/>
<path fill-rule="evenodd" clip-rule="evenodd" d="M113.76 54.2398C112.96 53.5998 112.32 52.4798 112 51.8398L114.56 50.7198C114.72 51.0398 115.04 51.5198 115.36 51.9998C116 52.6398 116.96 53.2798 117.92 53.2798C118.88 53.2798 120 52.7998 120.64 51.9998C121.12 51.1998 121.44 50.3998 121.44 49.2798V48.3198C119.52 50.7198 115.52 50.3998 113.28 47.8398C110.88 45.2798 110.88 40.9598 113.28 38.3998C115.68 35.9998 119.2 35.6798 121.28 37.9198V36.7998H124V48.7998C124 51.8398 122.88 53.5998 121.44 54.7198C120.48 55.5198 119.04 55.8398 117.76 55.8398C116.32 55.6798 114.88 55.1998 113.76 54.2398ZM180.8 54.8798L183.52 48.4798L178.72 37.4398H181.44L184.8 45.2798L188.16 37.4398H190.88L183.52 54.8798H180.8ZM167.84 48.7998C167.04 47.9998 166.72 46.8798 166.72 45.7598C166.72 44.7998 167.04 43.8398 167.68 43.1998C168.8 42.0798 170.4 41.5998 172.16 41.5998C173.28 41.5998 174.24 41.7598 175.04 42.2398C175.04 40.3198 173.44 39.5198 172.16 39.5198C171.04 39.5198 169.92 40.1598 169.44 41.2798L167.04 40.3198C167.52 39.1998 168.8 37.1198 172 37.1198C173.6 37.1198 175.2 37.5998 176.16 38.7198C177.12 39.8398 177.44 41.1198 177.44 42.8798V49.5998H174.72V48.4798C174.4 48.9598 173.76 49.2798 173.28 49.5998C172.64 49.9198 171.84 50.0798 171.04 50.0798C170.08 49.9198 168.64 49.5998 167.84 48.7998ZM82.5596 43.0398C82.5596 39.8398 84.9596 36.3198 89.2796 36.3198C93.4396 36.3198 95.9996 39.8398 95.9996 43.0398C95.9996 46.2398 93.5996 49.7598 89.2796 49.7598C84.9596 49.7598 82.5596 46.2398 82.5596 43.0398ZM96.9596 43.0398C96.9596 39.8398 99.3596 36.3198 103.68 36.3198C107.84 36.3198 110.4 39.8398 110.4 43.0398C110.4 46.2398 108 49.7598 103.68 49.7598C99.5196 49.7598 96.9596 46.2398 96.9596 43.0398ZM64.4796 46.5598C60.4796 42.5598 60.6396 35.9998 64.6396 31.8398C66.7196 29.7598 69.2796 28.7998 71.9996 28.7998C74.5596 28.7998 77.1196 29.7598 79.0396 31.6798L77.1196 33.7598C74.2396 30.8798 69.5996 31.0398 66.8796 33.9198C63.9996 36.9598 63.9996 41.5998 66.8796 44.6398C69.7596 47.6798 74.5596 47.8398 77.4396 44.7998C78.3996 43.8398 78.7196 42.5598 78.8796 41.2798H72.1596V38.3998H81.5996C81.7596 39.0398 81.7596 39.8398 81.7596 40.6398C81.7596 43.0398 80.7996 45.4398 79.1996 47.0398C77.4396 48.7998 74.8796 49.7598 72.3196 49.7598C69.4396 49.5998 66.5596 48.6398 64.4796 46.5598ZM132.16 47.6798C129.76 45.1198 129.76 40.7998 132.16 38.0798C134.56 35.5198 138.56 35.5198 140.8 38.0798C141.6 38.8798 142.08 39.9998 142.56 41.1198L133.76 44.7998C134.24 45.9198 135.36 46.8798 136.96 46.8798C138.4 46.8798 139.36 46.3998 140.32 44.9598L142.72 46.5598C142.4 46.8798 142.08 47.1998 141.92 47.5198C139.2 50.2398 134.56 50.2398 132.16 47.6798ZM148.8 49.5998V31.8398H154.56C157.92 31.8398 160.64 34.2398 160.64 37.1198C160.64 39.9998 158.24 42.3998 155.2 42.3998H151.68V49.4398H148.8V49.5998ZM162.24 49.5998V31.8398H164.96V49.5998H162.24ZM126.08 49.2798V29.4398H128.96V49.2798H126.08ZM174.88 44.3198C174.24 43.8398 173.28 43.6798 172.32 43.6798C170.4 43.6798 169.28 44.6398 169.28 45.7598C169.28 46.8798 170.4 47.5198 171.52 47.5198C173.12 47.5198 174.88 46.2398 174.88 44.3198ZM92.9596 43.0398C92.9596 41.1198 91.6796 39.0398 89.2796 39.0398C86.8796 39.0398 85.5996 41.1198 85.5996 43.0398C85.5996 44.9598 86.8796 47.0398 89.2796 47.0398C91.5196 47.0398 92.9596 44.9598 92.9596 43.0398ZM107.36 43.0398C107.36 41.1198 106.08 39.0398 103.68 39.0398C101.28 39.0398 99.9996 41.1198 99.9996 43.0398C99.9996 44.9598 101.28 47.0398 103.68 47.0398C106.08 47.0398 107.36 44.9598 107.36 43.0398ZM121.6 44.1598C121.6 43.9998 121.6 43.8398 121.76 43.6798C121.76 43.5198 121.76 43.1998 121.76 43.0398C121.76 42.8798 121.76 42.5598 121.76 42.3998V42.2398C121.76 42.0798 121.6 41.7598 121.6 41.5998C121.12 39.9998 119.68 38.8798 118.24 38.8798C116.32 38.8798 114.72 40.7998 114.72 42.8798C114.72 45.1198 116.32 46.8798 118.4 46.8798C119.68 47.0398 120.96 45.9198 121.6 44.1598ZM133.28 42.7198L139.2 40.1598C138.56 39.0398 137.6 38.7198 136.8 38.7198C134.4 38.8798 132.96 41.4398 133.28 42.7198ZM157.76 37.2798C157.76 35.6798 156.48 34.5598 154.72 34.5598H151.52V40.1598H154.88C156.48 40.1598 157.76 38.8798 157.76 37.2798Z" fill="white"/>
<path fill-rule="evenodd" clip-rule="evenodd" d="M182.88 51.6796H182.72V51.52H182.88H182.72V51.6796H182.88Z" fill="white"/>
<path fill-rule="evenodd" clip-rule="evenodd" d="M183.199 51.6796C183.199 51.52 183.199 51.52 183.199 51.6796C183.04 51.52 183.04 51.52 183.199 51.6796C183.04 51.6796 183.04 51.6796 183.199 51.6796ZM183.199 51.52C183.199 51.6797 183.199 51.6797 183.199 51.52C183.04 51.6797 183.199 51.6797 183.199 51.52C183.199 51.52 183.04 51.52 183.199 51.52Z" fill="white"/>
<path fill-rule="evenodd" clip-rule="evenodd" d="M183.36 51.52H183.2H183.36V51.6796V51.52Z" fill="white"/>
<path d="M62.2397 16.16C62.2397 13.28 64.3197 11.52 66.8797 11.52C68.6397 11.52 69.7597 12.32 70.5597 13.44L69.2797 14.24C68.7997 13.6 67.9997 13.12 66.8797 13.12C65.1197 13.12 63.8397 14.4 63.8397 16.32C63.8397 18.24 65.1197 19.52 66.8797 19.52C67.8397 19.52 68.6397 19.04 68.9597 18.72V17.28H66.3997V15.84H70.7197V19.2C69.9197 20.16 68.6397 20.8 67.0397 20.8C64.3197 20.8 62.2397 18.88 62.2397 16.16Z" fill="white"/>
<path d="M72.6396 20.6392V11.6792H78.7197V13.1192H74.0797V15.3592H78.5597V16.7992H74.0797V19.3592H78.7197V20.7992L72.6396 20.6392Z" fill="white"/>
<path d="M83.1997 20.6392V13.1192H80.4797V11.6792H87.5197V13.1192H84.7997V20.6392H83.1997Z" fill="white"/>
<path d="M92.9603 20.6392V11.6792H94.5603V20.6392H92.9603Z" fill="white"/>
<path d="M98.8803 20.6392V13.1192H96.1603V11.6792H103.2V13.1192H100.48V20.6392H98.8803Z" fill="white"/>
<path d="M108.32 16.16C108.32 13.44 110.24 11.52 112.96 11.52C115.68 11.52 117.6 13.44 117.6 16.16C117.6 18.88 115.68 20.8 112.96 20.8C110.24 20.8 108.32 18.72 108.32 16.16ZM115.84 16.16C115.84 14.24 114.72 12.96 112.8 12.96C111.04 12.96 109.76 14.4 109.76 16.16C109.76 18.08 110.88 19.36 112.8 19.36C114.72 19.36 115.84 17.92 115.84 16.16Z" fill="white"/>
<path d="M125.6 20.6392L120.96 14.2392V20.6392H119.36V11.6792H120.96L125.6 17.9192V11.6792H127.2V20.6392H125.6Z" fill="white"/>
<defs>
<linearGradient id="paint0_linear_1_248" x1="26.0275" y1="10.5176" x2="34.9847" y2="47.303" gradientUnits="userSpaceOnUse">
<stop stop-color="#006884"/>
<stop offset="1" stop-color="#8AD1D0"/>
</linearGradient>
<linearGradient id="paint1_linear_1_248" x1="15.1054" y1="15.7499" x2="39.515" y2="28.9459" gradientUnits="userSpaceOnUse">
<stop stop-color="#24BBB6"/>
<stop offset="1" stop-color="#DBE692"/>
</linearGradient>
<linearGradient id="paint2_linear_1_248" x1="43.1907" y1="37.7921" x2="43.1907" y2="25.0747" gradientUnits="userSpaceOnUse">
<stop stop-color="#FCC072"/>
<stop offset="1" stop-color="#F58A5B"/>
</linearGradient>
<linearGradient id="paint3_linear_1_248" x1="19.8318" y1="53.2309" x2="39.1145" y2="33.6066" gradientUnits="userSpaceOnUse">
<stop stop-color="#712B8F"/>
<stop offset="1" stop-color="#EA1D27"/>
</linearGradient>
</defs>
</svg>
