<svg width="103" height="21" viewBox="0 0 103 21" fill="none" xmlns="http://www.w3.org/2000/svg">
<path d="M0 0H3.12926V9.81968C4.1444 9.22066 5.28993 8.92115 6.56585 8.92115C8.38193 8.92115 9.93259 9.51589 11.2178 10.7054C12.5031 11.8778 13.1457 13.2983 13.1457 14.967C13.1457 16.6271 12.5031 18.0477 11.2178 19.2286C9.93259 20.4095 8.38193 21 6.56585 21C4.75908 21 3.21773 20.4095 1.94181 19.2286C0.647272 18.0477 0 16.6271 0 14.967V0Z" fill="black"/>
<path d="M21.3041 21C19.5159 21 17.9932 20.4181 16.7359 19.2543C15.4693 18.099 14.836 16.6999 14.836 15.0568V8.93398H17.9513V15.0568C17.9513 15.9126 18.2773 16.6443 18.9292 17.2518C19.5998 17.8594 20.396 18.1632 21.3181 18.1632C22.2401 18.1632 23.0363 17.8594 23.7069 17.2518C24.3588 16.6443 24.6848 15.9126 24.6848 15.0568V8.93398H27.8001V15.0568C27.8001 16.6999 27.1668 18.099 25.9002 19.2543C24.6429 20.4181 23.1202 21 21.332 21H21.3041Z" fill="black"/>
<path d="M32.5638 21H29.4765V0H32.5638V21Z" fill="black"/>
<path d="M37.3415 21H34.2542V0H37.3415V21Z" fill="black"/>
<path d="M48.6292 16.4945L51.1438 18.2274C50.8923 18.5782 50.5943 18.912 50.2497 19.2286C48.9645 20.4095 47.4138 21 45.5977 21C43.7909 21 42.2496 20.4095 40.9737 19.2286C39.6791 18.0477 39.0319 16.6271 39.0319 14.967C39.0319 13.3068 39.6791 11.8906 40.9737 10.7182C42.2496 9.52873 43.7909 8.93398 45.5977 8.93398C47.4138 8.93398 48.9645 9.52873 50.2497 10.7182C50.5943 11.0263 50.8923 11.3557 51.1438 11.7066L48.6292 13.4395C48.4709 13.1913 48.2753 12.956 48.0424 12.7335C47.3626 12.1174 46.5477 11.8093 45.5977 11.8093C44.6571 11.8093 43.8468 12.1174 43.167 12.7335C42.5057 13.3582 42.1751 14.1027 42.1751 14.967C42.1751 15.8313 42.5057 16.5758 43.167 17.2005C43.8468 17.8166 44.6571 18.1247 45.5977 18.1247C46.5477 18.1247 47.3626 17.8166 48.0424 17.2005C48.2846 16.978 48.4802 16.7427 48.6292 16.4945Z" fill="black"/>
<path d="M59.4 8.93398C61.1788 8.93398 62.7015 9.51161 63.9681 10.6669C65.2347 11.8307 65.868 13.2341 65.868 14.8771V21H62.7807V14.8771C62.7807 14.0128 62.4501 13.2812 61.7888 12.6822C61.1276 12.066 60.3313 11.7579 59.4 11.7579C58.4686 11.7579 57.6677 12.066 56.9971 12.6822C56.3359 13.2812 56.0053 14.0128 56.0053 14.8771V21H52.8341V0H55.9215V9.85819C56.9739 9.24205 58.1334 8.93398 59.4 8.93398Z" fill="black"/>
<path d="M74.1242 21C72.3175 21 70.7761 20.4095 69.5002 19.2286C68.2057 18.0477 67.5584 16.6271 67.5584 14.967C67.5584 13.3068 68.2057 11.8906 69.5002 10.7182C70.7761 9.52873 72.3175 8.93398 74.1242 8.93398C75.931 8.93398 77.477 9.52873 78.7622 10.7182C80.0475 11.8906 80.6901 13.3068 80.6901 14.967C80.6901 16.6271 80.0475 18.0477 78.7622 19.2286C77.477 20.4095 75.931 21 74.1242 21Z" fill="black"/>
<path d="M86.306 9.40892C87.1069 9.10086 87.9451 8.94682 88.8206 8.94682V11.7708C88.3642 11.7708 87.9265 11.8521 87.5074 12.0147C87.1069 12.1773 86.7484 12.404 86.4317 12.695C86.1151 12.9774 85.8776 13.3026 85.7192 13.6705C85.5516 14.0128 85.4631 14.3808 85.4538 14.7745V21H82.3665V8.93398H85.4538V9.81968C85.7518 9.64853 86.0359 9.51161 86.306 9.40892Z" fill="black"/>
<path d="M103 14.967C103 16.6271 102.353 18.0477 101.058 19.2286C99.7823 20.4095 98.2409 21 96.4341 21C94.6181 21 93.0674 20.4095 91.7822 19.2286C90.497 18.0477 89.8543 16.6271 89.8543 14.967C89.8543 13.2983 90.497 11.8778 91.7822 10.7054C93.0674 9.51589 94.6181 8.92115 96.4341 8.92115C97.7101 8.92115 98.8556 9.22066 99.8707 9.81968V0H103V14.967Z" fill="black"/>
<path d="M10.4561 15.0099C10.4561 16.8431 8.83873 18.3293 6.84359 18.3293C4.84845 18.3293 3.23108 16.8431 3.23108 15.0099C3.23108 13.1767 4.84845 11.6906 6.84359 11.6906C8.83873 11.6906 10.4561 13.1767 10.4561 15.0099Z" fill="black"/>
<path d="M77.6406 15.0862C77.6406 16.9194 76.0232 18.4056 74.028 18.4056C72.0329 18.4056 70.4155 16.9194 70.4155 15.0862C70.4155 13.253 72.0329 11.7669 74.028 11.7669C76.0232 11.7669 77.6406 13.253 77.6406 15.0862Z" fill="black"/>
<path d="M99.98 15.0862C99.98 16.9194 98.3626 18.4056 96.3675 18.4056C94.3724 18.4056 92.755 16.9194 92.755 15.0862C92.755 13.253 94.3724 11.7669 96.3675 11.7669C98.3626 11.7669 99.98 13.253 99.98 15.0862Z" fill="black"/>
</svg>
