<svg width="50" height="50" viewBox="0 0 50 50" fill="none" xmlns="http://www.w3.org/2000/svg">
<rect width="50" height="50" rx="25" fill="black"/>
<g clip-path="url(#clip0_1_425)">
<path d="M21 19C22.5913 19 24.1174 19.6321 25.2426 20.7574C26.3679 21.8826 27 23.4087 27 25C27 26.5913 26.3679 28.1174 25.2426 29.2426C24.1174 30.3679 22.5913 31 21 31C19.4087 31 17.8826 30.3679 16.7574 29.2426C15.6321 28.1174 15 26.5913 15 25C15 23.4087 15.6321 21.8826 16.7574 20.7574C17.8826 19.6321 19.4087 19 21 19ZM30 20C31.5 20 32.5 22.239 32.5 25C32.5 27.761 31.5 30 30 30C28.5 30 27.5 27.761 27.5 25C27.5 22.239 28.5 20 30 20ZM34 20.5C34.38 20.5 34.712 21.327 34.88 22.746L34.927 23.189L34.946 23.424L34.976 23.918L34.986 24.177L34.998 24.718L35 25L34.998 25.282L34.986 25.823L34.976 26.083L34.946 26.576L34.926 26.811L34.881 27.254C34.712 28.674 34.381 29.5 34 29.5C33.62 29.5 33.288 28.673 33.12 27.254L33.073 26.811C33.0661 26.7327 33.0598 26.6544 33.054 26.576L33.024 26.082C33.0201 25.9957 33.0168 25.9094 33.014 25.823L33.002 25.282V24.718L33.014 24.177L33.024 23.917L33.054 23.424L33.074 23.189L33.119 22.746C33.288 21.326 33.619 20.5 34 20.5Z" fill="white"/>
</g>
<defs>
<clipPath id="clip0_1_425">
<rect width="24" height="24" fill="white" transform="translate(13 13)"/>
</clipPath>
</defs>
</svg>
