<svg width="50" height="50" viewBox="0 0 50 50" fill="none" xmlns="http://www.w3.org/2000/svg">
<rect width="50" height="50" rx="25" fill="black"/>
<path d="M23.75 26.04C23.75 25.47 23.28 25 22.71 25C22.14 25 21.67 25.47 21.67 26.04C21.67 26.3158 21.7796 26.5804 21.9746 26.7754C22.1696 26.9704 22.4342 27.08 22.71 27.08C22.9858 27.08 23.2503 26.9704 23.4454 26.7754C23.6404 26.5804 23.75 26.3158 23.75 26.04ZM27.09 28.41C26.64 28.86 25.68 29.02 25 29.02C24.32 29.02 23.36 28.86 22.91 28.41C22.8857 28.384 22.8562 28.3632 22.8236 28.349C22.7909 28.3348 22.7556 28.3275 22.72 28.3275C22.6843 28.3275 22.6491 28.3348 22.6164 28.349C22.5837 28.3632 22.5543 28.384 22.53 28.41C22.5039 28.4343 22.4832 28.4637 22.469 28.4964C22.4548 28.5291 22.4475 28.5644 22.4475 28.6C22.4475 28.6356 22.4548 28.6709 22.469 28.7036C22.4832 28.7363 22.5039 28.7657 22.53 28.79C23.24 29.5 24.6 29.56 25 29.56C25.4 29.56 26.76 29.5 27.47 28.79C27.496 28.7657 27.5168 28.7363 27.531 28.7036C27.5452 28.6709 27.5525 28.6356 27.5525 28.6C27.5525 28.5644 27.5452 28.5291 27.531 28.4964C27.5168 28.4637 27.496 28.4343 27.47 28.41C27.37 28.31 27.2 28.31 27.09 28.41ZM27.29 25C26.72 25 26.25 25.47 26.25 26.04C26.25 26.61 26.72 27.08 27.29 27.08C27.86 27.08 28.33 26.61 28.33 26.04C28.33 25.47 27.87 25 27.29 25Z" fill="white"/>
<path d="M25 15C19.48 15 15 19.48 15 25C15 30.52 19.48 35 25 35C30.52 35 35 30.52 35 25C35 19.48 30.52 15 25 15ZM30.8 26.33C30.82 26.47 30.83 26.62 30.83 26.77C30.83 29.01 28.22 30.83 25 30.83C21.78 30.83 19.17 29.01 19.17 26.77C19.17 26.62 19.18 26.47 19.2 26.33C18.69 26.1 18.34 25.59 18.34 25C18.3385 24.7132 18.4218 24.4324 18.5794 24.1929C18.737 23.9533 18.9619 23.7656 19.2258 23.6534C19.4897 23.5413 19.7808 23.5096 20.0627 23.5623C20.3446 23.6151 20.6045 23.75 20.81 23.95C21.82 23.22 23.22 22.76 24.77 22.71L25.51 19.22C25.52 19.15 25.56 19.09 25.62 19.06C25.68 19.02 25.75 19.01 25.82 19.02L28.24 19.54C28.3221 19.3736 28.4472 19.2321 28.6023 19.1304C28.7575 19.0286 28.9371 18.9702 29.1224 18.9612C29.3077 18.9522 29.4921 18.993 29.6564 19.0793C29.8207 19.1656 29.9589 19.2943 30.0566 19.452C30.1544 19.6097 30.2082 19.7907 30.2125 19.9762C30.2167 20.1617 30.1712 20.345 30.0808 20.507C29.9903 20.669 29.8582 20.8039 29.698 20.8976C29.5379 20.9913 29.3556 21.0405 29.17 21.04C28.61 21.04 28.16 20.6 28.13 20.05L25.96 19.59L25.3 22.71C26.83 22.76 28.2 23.23 29.2 23.95C29.3533 23.8036 29.5367 23.6925 29.7375 23.6244C29.9382 23.5563 30.1514 23.5329 30.3621 23.5558C30.5728 23.5787 30.776 23.6474 30.9574 23.757C31.1388 23.8667 31.2941 24.0146 31.4123 24.1905C31.5306 24.3664 31.609 24.5661 31.642 24.7754C31.6751 24.9848 31.662 25.1989 31.6037 25.4027C31.5454 25.6064 31.4432 25.795 31.3044 25.9552C31.1656 26.1154 30.9934 26.2433 30.8 26.33Z" fill="white"/>
</svg>
