<svg width="1512" height="636" viewBox="0 0 1512 636" fill="none" xmlns="http://www.w3.org/2000/svg">
<g clip-path="url(#clip0_193_122)">
<rect width="1512" height="636" fill="#14A5AD"/>
<path d="M427.333 348V297.6H445.837C449.869 297.6 453.181 298.296 455.773 299.688C458.413 301.032 460.381 302.88 461.677 305.232C462.973 307.536 463.621 310.104 463.621 312.936C463.621 316.008 462.805 318.816 461.173 321.36C459.589 323.904 457.093 325.752 453.685 326.904L464.125 348H453.541L444.181 328.128H436.549V348H427.333ZM436.549 321.36H445.261C448.333 321.36 450.589 320.616 452.029 319.128C453.469 317.64 454.189 315.672 454.189 313.224C454.189 310.824 453.469 308.904 452.029 307.464C450.637 306.024 448.357 305.304 445.189 305.304H436.549V321.36ZM488.948 348.864C485.348 348.864 482.156 348.096 479.372 346.56C476.588 345.024 474.404 342.864 472.82 340.08C471.236 337.296 470.444 334.08 470.444 330.432C470.444 326.736 471.212 323.448 472.748 320.568C474.332 317.688 476.492 315.456 479.228 313.872C482.012 312.24 485.276 311.424 489.02 311.424C492.524 311.424 495.62 312.192 498.308 313.728C500.996 315.264 503.084 317.376 504.572 320.064C506.108 322.704 506.876 325.656 506.876 328.92C506.876 329.448 506.852 330 506.804 330.576C506.804 331.152 506.78 331.752 506.732 332.376H479.588C479.78 335.16 480.74 337.344 482.468 338.928C484.244 340.512 486.38 341.304 488.876 341.304C490.748 341.304 492.308 340.896 493.556 340.08C494.852 339.216 495.812 338.112 496.436 336.768H505.796C505.124 339.024 503.996 341.088 502.412 342.96C500.876 344.784 498.956 346.224 496.652 347.28C494.396 348.336 491.828 348.864 488.948 348.864ZM489.02 318.912C486.764 318.912 484.772 319.56 483.044 320.856C481.316 322.104 480.212 324.024 479.732 326.616H497.516C497.372 324.264 496.508 322.392 494.924 321C493.34 319.608 491.372 318.912 489.02 318.912ZM528.74 348.864C525.668 348.864 523.148 348.384 521.18 347.424C519.212 346.416 517.748 345.096 516.788 343.464C515.828 341.832 515.348 340.032 515.348 338.064C515.348 334.752 516.644 332.064 519.236 330C521.828 327.936 525.716 326.904 530.9 326.904H539.972V326.04C539.972 323.592 539.276 321.792 537.884 320.64C536.492 319.488 534.764 318.912 532.7 318.912C530.828 318.912 529.196 319.368 527.804 320.28C526.412 321.144 525.548 322.44 525.212 324.168H516.212C516.452 321.576 517.316 319.32 518.804 317.4C520.34 315.48 522.308 314.016 524.708 313.008C527.108 311.952 529.796 311.424 532.772 311.424C537.86 311.424 541.868 312.696 544.796 315.24C547.724 317.784 549.188 321.384 549.188 326.04V348H541.34L540.476 342.24C539.42 344.16 537.932 345.744 536.012 346.992C534.14 348.24 531.716 348.864 528.74 348.864ZM530.828 341.664C533.468 341.664 535.508 340.8 536.948 339.072C538.436 337.344 539.372 335.208 539.756 332.664H531.908C529.46 332.664 527.708 333.12 526.652 334.032C525.596 334.896 525.068 335.976 525.068 337.272C525.068 338.664 525.596 339.744 526.652 340.512C527.708 341.28 529.1 341.664 530.828 341.664ZM576.198 348.864C572.838 348.864 569.838 348.048 567.198 346.416C564.558 344.784 562.47 342.552 560.934 339.72C559.398 336.888 558.63 333.672 558.63 330.072C558.63 326.472 559.398 323.28 560.934 320.496C562.47 317.664 564.558 315.456 567.198 313.872C569.838 312.24 572.838 311.424 576.198 311.424C578.886 311.424 581.238 311.928 583.254 312.936C585.27 313.944 586.902 315.36 588.15 317.184V296.16H597.366V348H589.158L588.15 342.888C586.998 344.472 585.462 345.864 583.542 347.064C581.67 348.264 579.222 348.864 576.198 348.864ZM578.142 340.8C581.118 340.8 583.542 339.816 585.414 337.848C587.334 335.832 588.294 333.264 588.294 330.144C588.294 327.024 587.334 324.48 585.414 322.512C583.542 320.496 581.118 319.488 578.142 319.488C575.214 319.488 572.79 320.472 570.87 322.44C568.95 324.408 567.99 326.952 567.99 330.072C567.99 333.192 568.95 335.76 570.87 337.776C572.79 339.792 575.214 340.8 578.142 340.8ZM644.643 348.864C641.187 348.864 638.067 348.072 635.283 346.488C632.547 344.904 630.363 342.72 628.731 339.936C627.147 337.104 626.355 333.84 626.355 330.144C626.355 326.448 627.171 323.208 628.803 320.424C630.435 317.592 632.619 315.384 635.355 313.8C638.139 312.216 641.259 311.424 644.715 311.424C648.123 311.424 651.195 312.216 653.931 313.8C656.715 315.384 658.899 317.592 660.483 320.424C662.115 323.208 662.931 326.448 662.931 330.144C662.931 333.84 662.115 337.104 660.483 339.936C658.899 342.72 656.715 344.904 653.931 346.488C651.147 348.072 648.051 348.864 644.643 348.864ZM644.643 340.872C647.043 340.872 649.131 339.984 650.907 338.208C652.683 336.384 653.571 333.696 653.571 330.144C653.571 326.592 652.683 323.928 650.907 322.152C649.131 320.328 647.067 319.416 644.715 319.416C642.267 319.416 640.155 320.328 638.379 322.152C636.651 323.928 635.787 326.592 635.787 330.144C635.787 333.696 636.651 336.384 638.379 338.208C640.155 339.984 642.243 340.872 644.643 340.872ZM686.363 348.864C681.899 348.864 678.443 347.472 675.995 344.688C673.595 341.904 672.395 337.824 672.395 332.448V312.288H681.539V331.584C681.539 334.656 682.163 337.008 683.411 338.64C684.659 340.272 686.627 341.088 689.315 341.088C691.859 341.088 693.947 340.176 695.579 338.352C697.259 336.528 698.099 333.984 698.099 330.72V312.288H707.315V348H699.179L698.459 341.952C697.355 344.064 695.747 345.744 693.635 346.992C691.571 348.24 689.147 348.864 686.363 348.864ZM718.576 348V312.288H726.784L727.648 318.984C728.944 316.68 730.696 314.856 732.904 313.512C735.16 312.12 737.8 311.424 740.824 311.424V321.144H738.232C736.216 321.144 734.416 321.456 732.832 322.08C731.248 322.704 730 323.784 729.088 325.32C728.224 326.856 727.792 328.992 727.792 331.728V348H718.576ZM769.535 348V319.992H764.639V312.288H769.535V308.112C769.535 303.792 770.615 300.72 772.775 298.896C774.983 297.072 777.959 296.16 781.703 296.16H785.663V304.008H783.143C781.559 304.008 780.431 304.32 779.759 304.944C779.087 305.568 778.751 306.624 778.751 308.112V312.288H786.455V319.992H778.751V348H769.535ZM808.946 348.864C804.482 348.864 801.026 347.472 798.578 344.688C796.178 341.904 794.978 337.824 794.978 332.448V312.288H804.122V331.584C804.122 334.656 804.746 337.008 805.994 338.64C807.242 340.272 809.21 341.088 811.898 341.088C814.442 341.088 816.53 340.176 818.162 338.352C819.842 336.528 820.682 333.984 820.682 330.72V312.288H829.898V348H821.762L821.042 341.952C819.938 344.064 818.33 345.744 816.218 346.992C814.154 348.24 811.73 348.864 808.946 348.864ZM841.159 348V296.16H850.375V348H841.159ZM861.592 348V296.16H870.808V348H861.592ZM900.981 348V296.16H910.197V348H900.981ZM938.55 348.864C935.094 348.864 931.974 348.072 929.19 346.488C926.454 344.904 924.27 342.72 922.638 339.936C921.054 337.104 920.262 333.84 920.262 330.144C920.262 326.448 921.078 323.208 922.71 320.424C924.342 317.592 926.526 315.384 929.262 313.8C932.046 312.216 935.166 311.424 938.622 311.424C942.03 311.424 945.102 312.216 947.838 313.8C950.622 315.384 952.806 317.592 954.39 320.424C956.022 323.208 956.838 326.448 956.838 330.144C956.838 333.84 956.022 337.104 954.39 339.936C952.806 342.72 950.622 344.904 947.838 346.488C945.054 348.072 941.958 348.864 938.55 348.864ZM938.55 340.872C940.95 340.872 943.038 339.984 944.814 338.208C946.59 336.384 947.478 333.696 947.478 330.144C947.478 326.592 946.59 323.928 944.814 322.152C943.038 320.328 940.974 319.416 938.622 319.416C936.174 319.416 934.062 320.328 932.286 322.152C930.558 323.928 929.694 326.592 929.694 330.144C929.694 333.696 930.558 336.384 932.286 338.208C934.062 339.984 936.15 340.872 938.55 340.872ZM966.878 348V312.288H975.014L975.734 318.336C976.838 316.224 978.422 314.544 980.486 313.296C982.598 312.048 985.07 311.424 987.902 311.424C992.318 311.424 995.75 312.816 998.198 315.6C1000.65 318.384 1001.87 322.464 1001.87 327.84V348H992.654V328.704C992.654 325.632 992.03 323.28 990.782 321.648C989.534 320.016 987.59 319.2 984.95 319.2C982.358 319.2 980.222 320.112 978.542 321.936C976.91 323.76 976.094 326.304 976.094 329.568V348H966.878ZM1027.6 337.344C1025.87 337.344 1024.27 337.152 1022.78 336.768L1020.11 339.432C1020.93 339.864 1022.03 340.224 1023.43 340.512C1024.82 340.8 1027.07 341.088 1030.19 341.376C1034.95 341.808 1038.4 342.936 1040.56 344.76C1042.72 346.584 1043.8 349.104 1043.8 352.32C1043.8 354.432 1043.23 356.424 1042.07 358.296C1040.92 360.216 1039.15 361.752 1036.75 362.904C1034.35 364.104 1031.27 364.704 1027.53 364.704C1022.44 364.704 1018.34 363.744 1015.22 361.824C1012.1 359.952 1010.54 357.12 1010.54 353.328C1010.54 350.112 1012.1 347.328 1015.22 344.976C1014.26 344.544 1013.42 344.088 1012.7 343.608C1012.03 343.128 1011.43 342.624 1010.9 342.096V340.44L1017.16 333.816C1014.38 331.368 1012.99 328.224 1012.99 324.384C1012.99 321.984 1013.56 319.8 1014.71 317.832C1015.91 315.864 1017.59 314.304 1019.75 313.152C1021.91 312 1024.53 311.424 1027.6 311.424C1029.62 311.424 1031.49 311.712 1033.22 312.288H1046.75V317.904L1040.63 318.336C1041.59 320.16 1042.07 322.176 1042.07 324.384C1042.07 326.784 1041.5 328.968 1040.35 330.936C1039.19 332.904 1037.51 334.464 1035.31 335.616C1033.15 336.768 1030.58 337.344 1027.6 337.344ZM1027.6 330.288C1029.47 330.288 1031.01 329.784 1032.21 328.776C1033.46 327.768 1034.08 326.328 1034.08 324.456C1034.08 322.584 1033.46 321.144 1032.21 320.136C1031.01 319.128 1029.47 318.624 1027.6 318.624C1025.63 318.624 1024.05 319.128 1022.85 320.136C1021.65 321.144 1021.05 322.584 1021.05 324.456C1021.05 326.328 1021.65 327.768 1022.85 328.776C1024.05 329.784 1025.63 330.288 1027.6 330.288ZM1018.96 352.392C1018.96 354.168 1019.78 355.488 1021.41 356.352C1023.09 357.264 1025.13 357.72 1027.53 357.72C1029.83 357.72 1031.71 357.24 1033.15 356.28C1034.59 355.368 1035.31 354.12 1035.31 352.536C1035.31 351.24 1034.83 350.16 1033.87 349.296C1032.95 348.432 1031.11 347.904 1028.32 347.712C1026.35 347.568 1024.53 347.352 1022.85 347.064C1021.46 347.832 1020.45 348.672 1019.83 349.584C1019.25 350.496 1018.96 351.432 1018.96 352.392ZM1054.48 331.008V323.304H1084.65V331.008H1054.48ZM515.387 443C511.643 443 508.643 442.088 506.387 440.264C504.131 438.44 503.003 435.2 503.003 430.544V414.992H496.883V407.288H503.003L504.083 397.712H512.219V407.288H521.867V414.992H512.219V430.616C512.219 432.344 512.579 433.544 513.299 434.216C514.067 434.84 515.363 435.152 517.187 435.152H521.651V443H515.387ZM548.018 443.864C544.418 443.864 541.226 443.096 538.442 441.56C535.658 440.024 533.474 437.864 531.89 435.08C530.306 432.296 529.514 429.08 529.514 425.432C529.514 421.736 530.282 418.448 531.818 415.568C533.402 412.688 535.562 410.456 538.298 408.872C541.082 407.24 544.346 406.424 548.09 406.424C551.594 406.424 554.69 407.192 557.378 408.728C560.066 410.264 562.154 412.376 563.642 415.064C565.178 417.704 565.946 420.656 565.946 423.92C565.946 424.448 565.922 425 565.874 425.576C565.874 426.152 565.85 426.752 565.802 427.376H538.658C538.85 430.16 539.81 432.344 541.538 433.928C543.314 435.512 545.45 436.304 547.946 436.304C549.818 436.304 551.378 435.896 552.626 435.08C553.922 434.216 554.882 433.112 555.506 431.768H564.866C564.194 434.024 563.066 436.088 561.482 437.96C559.946 439.784 558.026 441.224 555.722 442.28C553.466 443.336 550.898 443.864 548.018 443.864ZM548.09 413.912C545.834 413.912 543.842 414.56 542.114 415.856C540.386 417.104 539.282 419.024 538.802 421.616H556.586C556.442 419.264 555.578 417.392 553.994 416C552.41 414.608 550.442 413.912 548.09 413.912ZM575.497 443V407.288H583.705L584.569 413.984C585.865 411.68 587.617 409.856 589.825 408.512C592.081 407.12 594.721 406.424 597.745 406.424V416.144H595.153C593.137 416.144 591.337 416.456 589.753 417.08C588.169 417.704 586.921 418.784 586.009 420.32C585.145 421.856 584.713 423.992 584.713 426.728V443H575.497ZM605.844 443V407.288H613.98L614.772 412.112C615.924 410.384 617.436 409.016 619.308 408.008C621.228 406.952 623.436 406.424 625.932 406.424C631.452 406.424 635.364 408.56 637.668 412.832C638.964 410.864 640.692 409.304 642.852 408.152C645.06 407 647.46 406.424 650.052 406.424C654.708 406.424 658.284 407.816 660.78 410.6C663.276 413.384 664.524 417.464 664.524 422.84V443H655.308V423.704C655.308 420.632 654.708 418.28 653.508 416.648C652.356 415.016 650.556 414.2 648.108 414.2C645.612 414.2 643.596 415.112 642.06 416.936C640.572 418.76 639.828 421.304 639.828 424.568V443H630.612V423.704C630.612 420.632 630.012 418.28 628.812 416.648C627.612 415.016 625.764 414.2 623.268 414.2C620.82 414.2 618.828 415.112 617.292 416.936C615.804 418.76 615.06 421.304 615.06 424.568V443H605.844ZM694.03 443V407.288H702.238L703.102 413.984C704.398 411.68 706.15 409.856 708.358 408.512C710.614 407.12 713.254 406.424 716.278 406.424V416.144H713.686C711.67 416.144 709.87 416.456 708.286 417.08C706.702 417.704 705.454 418.784 704.542 420.32C703.678 421.856 703.246 423.992 703.246 426.728V443H694.03ZM740.88 443.864C737.424 443.864 734.304 443.072 731.52 441.488C728.784 439.904 726.6 437.72 724.968 434.936C723.384 432.104 722.592 428.84 722.592 425.144C722.592 421.448 723.408 418.208 725.04 415.424C726.672 412.592 728.856 410.384 731.592 408.8C734.376 407.216 737.496 406.424 740.952 406.424C744.36 406.424 747.432 407.216 750.168 408.8C752.952 410.384 755.136 412.592 756.72 415.424C758.352 418.208 759.168 421.448 759.168 425.144C759.168 428.84 758.352 432.104 756.72 434.936C755.136 437.72 752.952 439.904 750.168 441.488C747.384 443.072 744.288 443.864 740.88 443.864ZM740.88 435.872C743.28 435.872 745.368 434.984 747.144 433.208C748.92 431.384 749.808 428.696 749.808 425.144C749.808 421.592 748.92 418.928 747.144 417.152C745.368 415.328 743.304 414.416 740.952 414.416C738.504 414.416 736.392 415.328 734.616 417.152C732.888 418.928 732.024 421.592 732.024 425.144C732.024 428.696 732.888 431.384 734.616 433.208C736.392 434.984 738.48 435.872 740.88 435.872ZM781.52 443.864C778.448 443.864 775.928 443.384 773.96 442.424C771.992 441.416 770.528 440.096 769.568 438.464C768.608 436.832 768.128 435.032 768.128 433.064C768.128 429.752 769.424 427.064 772.016 425C774.608 422.936 778.496 421.904 783.68 421.904H792.752V421.04C792.752 418.592 792.056 416.792 790.664 415.64C789.272 414.488 787.544 413.912 785.48 413.912C783.608 413.912 781.976 414.368 780.584 415.28C779.192 416.144 778.328 417.44 777.992 419.168H768.992C769.232 416.576 770.096 414.32 771.584 412.4C773.12 410.48 775.088 409.016 777.488 408.008C779.888 406.952 782.576 406.424 785.552 406.424C790.64 406.424 794.648 407.696 797.576 410.24C800.504 412.784 801.968 416.384 801.968 421.04V443H794.12L793.256 437.24C792.2 439.16 790.712 440.744 788.792 441.992C786.92 443.24 784.496 443.864 781.52 443.864ZM783.608 436.664C786.248 436.664 788.288 435.8 789.728 434.072C791.216 432.344 792.152 430.208 792.536 427.664H784.688C782.24 427.664 780.488 428.12 779.432 429.032C778.376 429.896 777.848 430.976 777.848 432.272C777.848 433.664 778.376 434.744 779.432 435.512C780.488 436.28 781.88 436.664 783.608 436.664ZM828.979 443.864C825.619 443.864 822.619 443.048 819.979 441.416C817.339 439.784 815.251 437.552 813.715 434.72C812.179 431.888 811.411 428.672 811.411 425.072C811.411 421.472 812.179 418.28 813.715 415.496C815.251 412.664 817.339 410.456 819.979 408.872C822.619 407.24 825.619 406.424 828.979 406.424C831.667 406.424 834.019 406.928 836.035 407.936C838.051 408.944 839.683 410.36 840.931 412.184V391.16H850.147V443H841.939L840.931 437.888C839.779 439.472 838.243 440.864 836.323 442.064C834.451 443.264 832.003 443.864 828.979 443.864ZM830.923 435.8C833.899 435.8 836.323 434.816 838.195 432.848C840.115 430.832 841.075 428.264 841.075 425.144C841.075 422.024 840.115 419.48 838.195 417.512C836.323 415.496 833.899 414.488 830.923 414.488C827.995 414.488 825.571 415.472 823.651 417.44C821.731 419.408 820.771 421.952 820.771 425.072C820.771 428.192 821.731 430.76 823.651 432.776C825.571 434.792 827.995 435.8 830.923 435.8ZM861.332 443V407.288H869.468L870.26 412.112C871.412 410.384 872.924 409.016 874.796 408.008C876.716 406.952 878.924 406.424 881.42 406.424C886.94 406.424 890.852 408.56 893.156 412.832C894.452 410.864 896.18 409.304 898.34 408.152C900.548 407 902.948 406.424 905.54 406.424C910.196 406.424 913.772 407.816 916.268 410.6C918.764 413.384 920.012 417.464 920.012 422.84V443H910.796V423.704C910.796 420.632 910.196 418.28 908.996 416.648C907.844 415.016 906.044 414.2 903.596 414.2C901.1 414.2 899.084 415.112 897.548 416.936C896.06 418.76 895.316 421.304 895.316 424.568V443H886.1V423.704C886.1 420.632 885.5 418.28 884.3 416.648C883.1 415.016 881.252 414.2 878.756 414.2C876.308 414.2 874.316 415.112 872.78 416.936C871.292 418.76 870.548 421.304 870.548 424.568V443H861.332ZM942.873 443.864C939.801 443.864 937.281 443.384 935.313 442.424C933.345 441.416 931.881 440.096 930.921 438.464C929.961 436.832 929.481 435.032 929.481 433.064C929.481 429.752 930.777 427.064 933.369 425C935.961 422.936 939.849 421.904 945.033 421.904H954.105V421.04C954.105 418.592 953.409 416.792 952.017 415.64C950.625 414.488 948.897 413.912 946.833 413.912C944.961 413.912 943.329 414.368 941.937 415.28C940.545 416.144 939.681 417.44 939.345 419.168H930.345C930.585 416.576 931.449 414.32 932.937 412.4C934.473 410.48 936.441 409.016 938.841 408.008C941.241 406.952 943.929 406.424 946.905 406.424C951.993 406.424 956.001 407.696 958.929 410.24C961.857 412.784 963.321 416.384 963.321 421.04V443H955.473L954.609 437.24C953.553 439.16 952.065 440.744 950.145 441.992C948.273 443.24 945.849 443.864 942.873 443.864ZM944.961 436.664C947.601 436.664 949.641 435.8 951.081 434.072C952.569 432.344 953.505 430.208 953.889 427.664H946.041C943.593 427.664 941.841 428.12 940.785 429.032C939.729 429.896 939.201 430.976 939.201 432.272C939.201 433.664 939.729 434.744 940.785 435.512C941.841 436.28 943.233 436.664 944.961 436.664ZM973.916 458.84V407.288H982.124L983.132 412.4C984.284 410.816 985.796 409.424 987.668 408.224C989.588 407.024 992.06 406.424 995.084 406.424C998.444 406.424 1001.44 407.24 1004.08 408.872C1006.72 410.504 1008.81 412.736 1010.35 415.568C1011.88 418.4 1012.65 421.616 1012.65 425.216C1012.65 428.816 1011.88 432.032 1010.35 434.864C1008.81 437.648 1006.72 439.856 1004.08 441.488C1001.44 443.072 998.444 443.864 995.084 443.864C992.396 443.864 990.044 443.36 988.028 442.352C986.012 441.344 984.38 439.928 983.132 438.104V458.84H973.916ZM993.14 435.8C996.068 435.8 998.492 434.816 1000.41 432.848C1002.33 430.88 1003.29 428.336 1003.29 425.216C1003.29 422.096 1002.33 419.528 1000.41 417.512C998.492 415.496 996.068 414.488 993.14 414.488C990.164 414.488 987.716 415.496 985.796 417.512C983.924 419.48 982.988 422.024 982.988 425.144C982.988 428.264 983.924 430.832 985.796 432.848C987.716 434.816 990.164 435.8 993.14 435.8Z" fill="white"/>
<path d="M1322.7 342.924L1605.74 107.018L1591.6 635.575L1322.7 342.924Z" fill="white" fill-opacity="0.08"/>
<path d="M1322.7 465.924L1605.74 230.018L1591.6 758.575L1322.7 465.924Z" fill="white" fill-opacity="0.04"/>
</g>
<defs>
<clipPath id="clip0_193_122">
<rect width="1512" height="636" fill="white"/>
</clipPath>
</defs>
</svg>
