<svg width="33" height="47" viewBox="0 0 33 47" fill="none" xmlns="http://www.w3.org/2000/svg">
<path d="M3.25629 46.4206C5.64701 46.4206 8.99401 44.508 11.5441 41.7985C13.6161 39.7266 15.2099 37.3358 15.8474 35.2639C15.8474 35.1045 15.8474 34.9451 16.0068 34.7857C17.4412 28.7293 16.8037 13.7474 16.3255 5.61896C18.3975 7.21277 21.107 7.53156 23.3383 7.69094C27.6416 8.0097 30.6699 8.32847 30.1917 15.66C30.1917 16.2975 30.6698 16.935 31.3074 16.935C31.9449 16.935 32.5824 16.4569 32.5824 15.8194C33.0606 6.09714 27.801 5.77838 23.4977 5.45961C19.9913 5.14085 17.1224 4.98143 15.8474 0.837522C15.688 0.199997 15.0505 -0.118765 14.413 0.0406157C13.7754 0.199997 13.4567 0.67817 13.4567 1.31569C14.0942 9.44413 14.7317 23.3103 13.9348 30.9606C11.3847 30.0043 7.55959 32.2356 4.53134 35.2639C1.02496 38.7703 -1.36577 43.5517 0.865571 45.783C1.66248 46.1018 2.45938 46.4206 3.25629 46.4206Z" fill="#73E7FF"/>
</svg>
