<svg width="23" height="26" viewBox="0 0 23 26" fill="none" xmlns="http://www.w3.org/2000/svg">
<path d="M2.53295 25.807C2.83332 25.8027 3.13279 25.7723 3.42817 25.7161C4.70028 25.4208 5.88828 24.8259 6.89853 23.9783C8.35806 22.9408 9.37468 21.3674 9.73889 19.5824C9.73889 19.5824 10.3689 12.8581 10.8441 7.95111H11.6288C14.6326 7.94286 17.6164 7.44838 20.4705 6.48584L20.592 13.3011C20.0139 13.1633 19.4129 13.1633 18.8348 13.3011C17.5577 13.5915 16.365 14.1869 15.3534 15.039C12.8335 17.0835 11.8056 19.7642 12.9661 21.2976C13.2277 21.6077 13.555 21.8519 13.9229 22.0114C14.2908 22.1709 14.6895 22.2415 15.0881 22.2177C16.6944 22.1107 18.2231 21.4687 19.4426 20.3889C21.3878 18.8214 22.4267 16.8791 22.2941 15.3683L22.0178 0.817829C22.0085 0.731476 21.9862 0.647149 21.9515 0.567936C21.9556 0.518805 21.9556 0.469398 21.9515 0.420267C21.9077 0.356457 21.8556 0.299134 21.7967 0.249893C21.758 0.199099 21.7135 0.153333 21.6641 0.113594C21.5443 0.0484384 21.4125 0.00974145 21.2773 0C21.1895 0.00829191 21.1036 0.0313117 21.0231 0.0681496C20.979 0.0643031 20.9346 0.0643031 20.8904 0.0681496C19.3924 0.869867 17.7983 1.46563 16.1491 1.84011C14.3682 2.25723 12.549 2.47808 10.7225 2.49892H10.5457C10.4724 2.48804 10.3979 2.48804 10.3246 2.49892C10.1728 2.54489 10.037 2.63457 9.93323 2.75735C9.82943 2.88014 9.76198 3.03088 9.73889 3.1918C9.73889 3.1918 9.73889 3.19181 9.73889 3.27132C9.73889 3.35083 9.58419 4.86153 9.35209 6.97425C9.02053 10.1661 8.61159 14.3801 8.36844 17.004C7.71892 16.7687 7.0182 16.7254 6.34593 16.8791C5.06988 17.1788 3.87842 17.7775 2.8645 18.6283C0.333575 20.6615 -0.683186 23.3535 0.477282 24.8756C0.728666 25.181 1.04439 25.4236 1.40056 25.585C1.75673 25.7464 2.14399 25.8223 2.53295 25.807Z" fill="white"/>
</svg>
