<svg width="25" height="36" viewBox="0 0 25 36" fill="none" xmlns="http://www.w3.org/2000/svg">
<path d="M2.44167 35.7734C4.23431 35.7734 6.744 34.2995 8.65615 32.2115C10.2098 30.6148 11.4049 28.7724 11.8829 27.1756C11.8829 27.0528 11.8829 26.93 12.0024 26.8072C13.078 22.1398 12.5999 10.5943 12.2414 4.33018C13.795 5.55843 15.8267 5.8041 17.4998 5.92693C20.7266 6.17258 22.9973 6.41822 22.6387 12.0682C22.6387 12.5595 22.9972 13.0508 23.4753 13.0508C23.9533 13.0508 24.4314 12.6823 24.4314 12.191C24.7899 4.69868 20.8461 4.45303 17.6193 4.20738C14.9901 3.96173 12.839 3.83888 11.8829 0.645425C11.7634 0.154125 11.2854 -0.0915251 10.8073 0.0313C10.3293 0.154125 10.0903 0.522623 10.0903 1.01392C10.5683 7.278 11.0463 17.9638 10.4488 23.8594C8.53664 23.1224 5.66842 24.842 3.39775 27.1756C0.768546 29.8778 -1.0241 33.5626 0.649033 35.2821C1.24658 35.5278 1.84413 35.7734 2.44167 35.7734Z" fill="black"/>
</svg>
