<svg width="25" height="37" viewBox="0 0 25 37" fill="none" xmlns="http://www.w3.org/2000/svg">
<path d="M1.09461 35.8228C1.45314 36.0684 1.93118 36.1912 2.2897 36.1912C3.24578 36.1912 4.3214 35.7 5.39699 34.8402C6.47257 33.9804 7.4286 32.7521 8.26516 31.5239C9.93829 28.9446 10.8944 25.9968 10.2968 24.1544C10.2968 24.0316 10.2969 23.9088 10.1774 23.7859C9.93834 23.1718 9.22128 19.9783 8.38472 16.0479L20.0966 7.573L22.2478 16.6621C20.3356 16.7849 18.065 18.8729 16.3918 21.4522C14.3602 24.6457 13.2846 28.5761 15.1968 29.9272C15.5553 30.1728 16.0333 30.2956 16.3918 30.2956C17.3479 30.2956 18.4235 29.8043 19.4991 28.9446C20.5746 28.0848 21.5307 26.8566 22.3673 25.6283C23.8014 23.2946 24.7575 20.7153 24.5185 18.8729L20.2161 0.694808C20.0966 0.449158 19.9771 0.203507 19.6185 0.0806824C19.3795 -0.0421427 19.021 -0.042154 18.782 0.203496L5.63602 9.66104C5.397 9.90669 5.15792 10.2752 5.27743 10.6436C6.59203 17.399 7.42864 20.8381 7.78717 22.8033C5.99453 22.9261 3.72387 25.0142 2.05074 27.5935C0.138596 30.5413 -0.937045 34.4717 1.09461 35.8228ZM7.18962 10.6436L18.782 2.29154L19.6185 5.73062L7.90665 14.0827C7.66763 12.9773 7.42864 11.7491 7.18962 10.6436Z" fill="black"/>
</svg>
