<svg width="164" height="145" viewBox="0 0 164 145" fill="none" xmlns="http://www.w3.org/2000/svg">
<rect y="0.00012207" width="3.72973" height="3.96014" rx="1.76651" fill="white"/>
<rect x="17.7297" width="3.72973" height="3.96014" rx="1.76651" fill="white"/>
<rect x="35.4595" width="3.72973" height="3.96014" rx="1.76651" fill="white"/>
<rect x="53.1892" width="3.72973" height="3.96014" rx="1.76651" fill="white"/>
<rect x="70.9189" width="3.72973" height="3.96014" rx="1.76651" fill="white"/>
<rect x="88.6487" width="3.72973" height="3.96014" rx="1.76651" fill="white"/>
<rect x="106.378" width="3.72973" height="3.96014" rx="1.76651" fill="white"/>
<rect x="124.108" width="3.72973" height="3.96014" rx="1.76651" fill="white"/>
<rect x="141.838" width="3.72973" height="3.96014" rx="1.76651" fill="white"/>
<rect x="159.568" width="3.72973" height="3.96014" rx="1.76651" fill="white"/>
<rect y="15.8406" width="3.72973" height="3.96014" rx="1.76651" fill="white"/>
<rect x="17.7297" y="15.8406" width="3.72973" height="3.96014" rx="1.76651" fill="white"/>
<rect x="35.4595" y="15.8406" width="3.72973" height="3.96014" rx="1.76651" fill="white"/>
<rect x="53.1892" y="15.8406" width="3.72973" height="3.96014" rx="1.76651" fill="white"/>
<rect x="70.9189" y="15.8406" width="3.72973" height="3.96014" rx="1.76651" fill="white"/>
<rect x="88.6487" y="15.8406" width="3.72973" height="3.96014" rx="1.76651" fill="white"/>
<rect x="106.378" y="15.8406" width="3.72973" height="3.96014" rx="1.76651" fill="white"/>
<rect x="124.108" y="15.8406" width="3.72973" height="3.96014" rx="1.76651" fill="white"/>
<rect x="141.838" y="15.8406" width="3.72973" height="3.96014" rx="1.76651" fill="white"/>
<rect x="159.568" y="15.8406" width="3.72973" height="3.96014" rx="1.76651" fill="white"/>
<rect y="31.6813" width="3.72973" height="3.96014" rx="1.76651" fill="white"/>
<rect x="17.7297" y="31.6812" width="3.72973" height="3.96014" rx="1.76651" fill="white"/>
<rect x="35.4595" y="31.6812" width="3.72973" height="3.96014" rx="1.76651" fill="white"/>
<rect x="53.1892" y="31.6812" width="3.72973" height="3.96014" rx="1.76651" fill="#C4AA81"/>
<rect x="70.9189" y="31.6812" width="3.72973" height="3.96014" rx="1.76651" fill="white"/>
<rect x="88.6487" y="31.6812" width="3.72973" height="3.96014" rx="1.76651" fill="white"/>
<rect x="106.378" y="31.6812" width="3.72973" height="3.96014" rx="1.76651" fill="#C4AA81"/>
<rect x="124.108" y="31.6812" width="3.72973" height="3.96014" rx="1.76651" fill="white"/>
<rect x="141.838" y="31.6812" width="3.72973" height="3.96014" rx="1.76651" fill="white"/>
<rect x="159.568" y="31.6812" width="3.72973" height="3.96014" rx="1.76651" fill="white"/>
<rect y="47.5219" width="3.72973" height="3.96014" rx="1.76651" fill="white"/>
<rect x="17.7297" y="47.5217" width="3.72973" height="3.96014" rx="1.76651" fill="white"/>
<rect x="35.4595" y="47.5217" width="3.72973" height="3.96014" rx="1.76651" fill="white"/>
<rect x="53.1892" y="47.5217" width="3.72973" height="3.96014" rx="1.76651" fill="white"/>
<rect x="70.9189" y="47.5217" width="3.72973" height="3.96014" rx="1.76651" fill="#D0E27C"/>
<rect x="88.6487" y="47.5217" width="3.72973" height="3.96014" rx="1.76651" fill="#8742C7"/>
<rect x="106.378" y="47.5217" width="3.72973" height="3.96014" rx="1.76651" fill="white"/>
<rect x="124.108" y="47.5217" width="3.72973" height="3.96014" rx="1.76651" fill="white"/>
<rect x="141.838" y="47.5217" width="3.72973" height="3.96014" rx="1.76651" fill="white"/>
<rect x="159.568" y="47.5217" width="3.72973" height="3.96014" rx="1.76651" fill="white"/>
<rect y="63.3623" width="3.72973" height="3.96014" rx="1.76651" fill="white"/>
<rect x="17.7297" y="63.3623" width="3.72973" height="3.96014" rx="1.76651" fill="white"/>
<rect x="35.4595" y="63.3623" width="3.72973" height="3.96014" rx="1.76651" fill="white"/>
<rect x="53.1892" y="63.3623" width="3.72973" height="3.96014" rx="1.76651" fill="#5EDEEF"/>
<rect x="70.9189" y="63.3623" width="3.72973" height="3.96014" rx="1.76651" fill="#8742C7"/>
<rect x="88.6487" y="63.3623" width="3.72973" height="3.96014" rx="1.76651" fill="#D0E27C"/>
<rect x="106.378" y="63.3623" width="3.72973" height="3.96014" rx="1.76651" fill="#D0DE9D"/>
<rect x="124.108" y="63.3623" width="3.72973" height="3.96014" rx="1.76651" fill="white"/>
<rect x="141.838" y="63.3623" width="3.72973" height="3.96014" rx="1.76651" fill="white"/>
<rect x="159.568" y="63.3623" width="3.72973" height="3.96014" rx="1.76651" fill="white"/>
<rect y="79.2029" width="3.72973" height="3.96014" rx="1.76651" fill="white"/>
<rect x="17.7297" y="79.2028" width="3.72973" height="3.96014" rx="1.76651" fill="white"/>
<rect x="35.4595" y="79.2028" width="3.72973" height="3.96014" rx="1.76651" fill="white"/>
<rect x="53.1892" y="79.2028" width="3.72973" height="3.96014" rx="1.76651" fill="#C4BF90"/>
<rect x="70.9189" y="79.2028" width="3.72973" height="3.96014" rx="1.76651" fill="#8742C7"/>
<rect x="88.6487" y="79.2028" width="3.72973" height="3.96014" rx="1.76651" fill="#D0E27C"/>
<rect x="106.378" y="79.2028" width="3.72973" height="3.96014" rx="1.76651" fill="#4DD4E0"/>
<rect x="124.108" y="79.2028" width="3.72973" height="3.96014" rx="1.76651" fill="white"/>
<rect x="141.838" y="79.2028" width="3.72973" height="3.96014" rx="1.76651" fill="white"/>
<rect x="159.568" y="79.2028" width="3.72973" height="3.96014" rx="1.76651" fill="white"/>
<rect y="95.0436" width="3.72973" height="3.96014" rx="1.76651" fill="white"/>
<rect y="110.321" width="3.72973" height="3.96014" rx="1.76651" fill="white"/>
<rect y="125.599" width="3.72973" height="3.96014" rx="1.76651" fill="white"/>
<rect y="140.876" width="3.72973" height="3.96014" rx="1.76651" fill="white"/>
<rect x="17.7297" y="95.0435" width="3.72973" height="3.96014" rx="1.76651" fill="white"/>
<rect x="17.7297" y="110.321" width="3.72973" height="3.96014" rx="1.76651" fill="white"/>
<rect x="17.7297" y="125.599" width="3.72973" height="3.96014" rx="1.76651" fill="white"/>
<rect x="17.7297" y="140.876" width="3.72973" height="3.96014" rx="1.76651" fill="white"/>
<rect x="35.4595" y="95.0435" width="3.72973" height="3.96014" rx="1.76651" fill="white"/>
<rect x="35.4595" y="110.321" width="3.72973" height="3.96014" rx="1.76651" fill="white"/>
<rect x="35.4595" y="125.599" width="3.72973" height="3.96014" rx="1.76651" fill="white"/>
<rect x="35.4595" y="140.876" width="3.72973" height="3.96014" rx="1.76651" fill="white"/>
<rect x="53.1892" y="95.0435" width="3.72973" height="3.96014" rx="1.76651" fill="#C4AA81"/>
<rect x="53.1892" y="110.321" width="3.72973" height="3.96014" rx="1.76651" fill="white"/>
<rect x="53.1892" y="125.599" width="3.72973" height="3.96014" rx="1.76651" fill="white"/>
<rect x="53.1892" y="140.876" width="3.72973" height="3.96014" rx="1.76651" fill="white"/>
<rect x="70.9189" y="95.0435" width="3.72973" height="3.96014" rx="1.76651" fill="#D0E27C"/>
<rect x="70.9189" y="110.321" width="3.72973" height="3.96014" rx="1.76651" fill="white"/>
<rect x="70.9189" y="125.599" width="3.72973" height="3.96014" rx="1.76651" fill="white"/>
<rect x="70.9189" y="140.876" width="3.72973" height="3.96014" rx="1.76651" fill="white"/>
<rect x="88.6487" y="95.0435" width="3.72973" height="3.96014" rx="1.76651" fill="#8742C7"/>
<rect x="88.6487" y="110.321" width="3.72973" height="3.96014" rx="1.76651" fill="white"/>
<rect x="88.6487" y="125.599" width="3.72973" height="3.96014" rx="1.76651" fill="white"/>
<rect x="88.6487" y="140.876" width="3.72973" height="3.96014" rx="1.76651" fill="white"/>
<rect x="106.378" y="95.0435" width="3.72973" height="3.96014" rx="1.76651" fill="#C4AB83"/>
<rect x="106.378" y="110.321" width="3.72973" height="3.96014" rx="1.76651" fill="white"/>
<rect x="106.378" y="125.599" width="3.72973" height="3.96014" rx="1.76651" fill="white"/>
<rect x="106.378" y="140.876" width="3.72973" height="3.96014" rx="1.76651" fill="white"/>
<rect x="124.108" y="95.0435" width="3.72973" height="3.96014" rx="1.76651" fill="white"/>
<rect x="124.108" y="110.321" width="3.72973" height="3.96014" rx="1.76651" fill="white"/>
<rect x="124.108" y="125.599" width="3.72973" height="3.96014" rx="1.76651" fill="white"/>
<rect x="124.108" y="140.876" width="3.72973" height="3.96014" rx="1.76651" fill="white"/>
<rect x="141.838" y="95.0435" width="3.72973" height="3.96014" rx="1.76651" fill="white"/>
<rect x="141.838" y="110.321" width="3.72973" height="3.96014" rx="1.76651" fill="white"/>
<rect x="141.838" y="125.599" width="3.72973" height="3.96014" rx="1.76651" fill="white"/>
<rect x="141.838" y="140.876" width="3.72973" height="3.96014" rx="1.76651" fill="white"/>
<rect x="159.568" y="95.0435" width="3.72973" height="3.96014" rx="1.76651" fill="white"/>
<rect x="159.568" y="110.321" width="3.72973" height="3.96014" rx="1.76651" fill="white"/>
<rect x="159.568" y="125.599" width="3.72973" height="3.96014" rx="1.76651" fill="white"/>
<rect x="159.568" y="140.876" width="3.72973" height="3.96014" rx="1.76651" fill="white"/>
</svg>
