<svg width="655" height="673" viewBox="0 0 655 673" fill="none" xmlns="http://www.w3.org/2000/svg">
<path d="M404.055 28.3447C430.66 34.8505 456.341 44.6781 480.492 57.5959L326.5 345.5L404.055 28.3447Z" fill="#00FF19"/>
<path d="M480.478 57.5883C495.56 65.6547 509.986 74.8938 523.621 85.2204L326.5 345.5L480.478 57.5883Z" fill="black"/>
<path d="M523.622 85.2209C561.935 114.237 593.37 151.355 615.683 193.923C637.995 236.491 650.634 283.46 652.699 331.477L326.5 345.5L523.622 85.2209Z" fill="#14A5AD"/>
<path d="M652.698 331.466C652.932 336.896 653.03 342.331 652.992 347.766L326.5 345.5L652.698 331.466Z" fill="#FF9900"/>
<path d="M385.211 24.9629C392.216 26.1983 399.178 27.6622 406.086 29.3524L328.5 346.5L385.211 24.9629Z" fill="#50471A"/>
<path d="M221.298 17.4129C273.361 -0.307198 329.055 -4.58944 383.215 4.96357L326.5 326.5L221.298 17.4129Z" fill="#724BB1"/>
<path d="M196.933 47.6819C205.571 43.8787 214.369 40.4518 223.304 37.4109L328.5 346.5L196.933 47.6819Z" fill="#BDFFFB"/>
<path d="M9.42011 277.288C20.3425 226.934 43.027 179.88 75.6192 139.973C108.211 100.065 149.786 68.4384 196.943 47.6774L328.5 346.5L9.42011 277.288Z" fill="#EBC1FF"/>
<path d="M22.0065 459.034C0.651798 400.874 -3.71364 337.837 9.42008 277.288L328.5 346.5L22.0065 459.034Z" fill="#333131"/>
<path d="M239.396 660.606C189.826 646.544 144.289 620.951 106.506 585.918C68.7233 550.885 39.7683 507.407 22.0084 459.039L328.5 346.5L239.396 660.606Z" fill="#FF0000"/>
<path d="M284.336 669.999C269.153 667.926 254.135 664.787 239.392 660.605L328.5 346.5L284.336 669.999Z" fill="#190025"/>
<path d="M366.174 670.819C338.968 673.979 311.473 673.704 284.336 669.999L328.5 346.5L366.174 670.819Z" fill="#003655"/>
<path d="M408.11 663.146C394.311 666.615 380.3 669.179 366.166 670.82L328.5 346.5L408.11 663.146Z" fill="#FFE977"/>
<path d="M628.146 476.17C608.261 522.122 578.074 562.884 539.919 595.306C501.764 627.727 456.663 650.939 408.105 663.147L328.5 346.5L628.146 476.17Z" fill="#4564D0"/>
<path d="M637.396 452.262C634.627 460.35 631.541 468.326 628.146 476.171L328.5 346.5L637.396 452.262Z" fill="#2B2B2B"/>
<path d="M644.742 427.697C642.616 435.977 640.166 444.171 637.397 452.259L328.5 346.5L644.742 427.697Z" fill="#E67C7C"/>
<path d="M655 346.5C655 373.889 651.554 401.169 644.742 427.697L328.5 346.5H655Z" fill="#0029FF"/>
<circle cx="328.5" cy="354.5" r="259.5" fill="white"/>
<path d="M199.577 338V314.12H191.417V310H212.897V314.12H204.697V338H199.577ZM222.696 338.48C220.776 338.48 219.042 338.04 217.496 337.16C215.976 336.28 214.762 335.067 213.856 333.52C212.976 331.947 212.536 330.133 212.536 328.08C212.536 326.027 212.989 324.227 213.896 322.68C214.802 321.107 216.016 319.88 217.536 319C219.082 318.12 220.816 317.68 222.736 317.68C224.629 317.68 226.336 318.12 227.856 319C229.402 319.88 230.616 321.107 231.496 322.68C232.402 324.227 232.856 326.027 232.856 328.08C232.856 330.133 232.402 331.947 231.496 333.52C230.616 335.067 229.402 336.28 227.856 337.16C226.309 338.04 224.589 338.48 222.696 338.48ZM222.696 334.04C224.029 334.04 225.189 333.547 226.176 332.56C227.162 331.547 227.656 330.053 227.656 328.08C227.656 326.107 227.162 324.627 226.176 323.64C225.189 322.627 224.042 322.12 222.736 322.12C221.376 322.12 220.202 322.627 219.216 323.64C218.256 324.627 217.776 326.107 217.776 328.08C217.776 330.053 218.256 331.547 219.216 332.56C220.202 333.547 221.362 334.04 222.696 334.04ZM245.692 338C243.612 338 241.946 337.493 240.692 336.48C239.439 335.467 238.812 333.667 238.812 331.08V322.44H235.412V318.16H238.812L239.412 312.84H243.932V318.16H249.292V322.44H243.932V331.12C243.932 332.08 244.132 332.747 244.532 333.12C244.959 333.467 245.679 333.64 246.692 333.64H249.172V338H245.692ZM260.728 338.48C259.022 338.48 257.622 338.213 256.528 337.68C255.435 337.12 254.622 336.387 254.088 335.48C253.555 334.573 253.288 333.573 253.288 332.48C253.288 330.64 254.008 329.147 255.448 328C256.888 326.853 259.048 326.28 261.928 326.28H266.968V325.8C266.968 324.44 266.582 323.44 265.808 322.8C265.035 322.16 264.075 321.84 262.928 321.84C261.888 321.84 260.982 322.093 260.208 322.6C259.435 323.08 258.955 323.8 258.768 324.76H253.768C253.902 323.32 254.382 322.067 255.208 321C256.062 319.933 257.155 319.12 258.488 318.56C259.822 317.973 261.315 317.68 262.968 317.68C265.795 317.68 268.022 318.387 269.648 319.8C271.275 321.213 272.088 323.213 272.088 325.8V338H267.728L267.248 334.8C266.662 335.867 265.835 336.747 264.768 337.44C263.728 338.133 262.382 338.48 260.728 338.48ZM261.888 334.48C263.355 334.48 264.488 334 265.288 333.04C266.115 332.08 266.635 330.893 266.848 329.48H262.488C261.128 329.48 260.155 329.733 259.568 330.24C258.982 330.72 258.688 331.32 258.688 332.04C258.688 332.813 258.982 333.413 259.568 333.84C260.155 334.267 260.928 334.48 261.888 334.48ZM277.174 338V309.2H282.294V338H277.174ZM307.137 338.48C305.084 338.48 303.27 338.133 301.697 337.44C300.124 336.72 298.884 335.707 297.977 334.4C297.07 333.067 296.604 331.453 296.577 329.56H301.977C302.03 330.867 302.497 331.973 303.377 332.88C304.284 333.76 305.524 334.2 307.097 334.2C308.457 334.2 309.537 333.88 310.337 333.24C311.137 332.573 311.537 331.693 311.537 330.6C311.537 329.453 311.177 328.56 310.457 327.92C309.764 327.28 308.83 326.76 307.657 326.36C306.484 325.96 305.23 325.533 303.897 325.08C301.737 324.333 300.084 323.373 298.937 322.2C297.817 321.027 297.257 319.467 297.257 317.52C297.23 315.867 297.617 314.453 298.417 313.28C299.244 312.08 300.364 311.16 301.777 310.52C303.19 309.853 304.817 309.52 306.657 309.52C308.524 309.52 310.164 309.853 311.577 310.52C313.017 311.187 314.137 312.12 314.937 313.32C315.764 314.52 316.204 315.947 316.257 317.6H310.777C310.75 316.613 310.364 315.747 309.617 315C308.897 314.227 307.884 313.84 306.577 313.84C305.457 313.813 304.51 314.093 303.737 314.68C302.99 315.24 302.617 316.067 302.617 317.16C302.617 318.093 302.91 318.84 303.497 319.4C304.084 319.933 304.884 320.387 305.897 320.76C306.91 321.133 308.07 321.533 309.377 321.96C310.764 322.44 312.03 323 313.177 323.64C314.324 324.28 315.244 325.133 315.937 326.2C316.63 327.24 316.977 328.587 316.977 330.24C316.977 331.707 316.604 333.067 315.857 334.32C315.11 335.573 314.004 336.587 312.537 337.36C311.07 338.107 309.27 338.48 307.137 338.48ZM328.964 338.48C326.484 338.48 324.564 337.707 323.204 336.16C321.871 334.613 321.204 332.347 321.204 329.36V318.16H326.284V328.88C326.284 330.587 326.631 331.893 327.324 332.8C328.018 333.707 329.111 334.16 330.604 334.16C332.018 334.16 333.178 333.653 334.084 332.64C335.018 331.627 335.484 330.213 335.484 328.4V318.16H340.604V338H336.084L335.684 334.64C335.071 335.813 334.178 336.747 333.004 337.44C331.858 338.133 330.511 338.48 328.964 338.48ZM346.06 346.8V318.16H350.62L351.18 321C351.82 320.12 352.66 319.347 353.7 318.68C354.767 318.013 356.14 317.68 357.82 317.68C359.687 317.68 361.353 318.133 362.82 319.04C364.287 319.947 365.447 321.187 366.3 322.76C367.153 324.333 367.58 326.12 367.58 328.12C367.58 330.12 367.153 331.907 366.3 333.48C365.447 335.027 364.287 336.253 362.82 337.16C361.353 338.04 359.687 338.48 357.82 338.48C356.327 338.48 355.02 338.2 353.9 337.64C352.78 337.08 351.873 336.293 351.18 335.28V346.8H346.06ZM356.74 334C358.367 334 359.713 333.453 360.78 332.36C361.847 331.267 362.38 329.853 362.38 328.12C362.38 326.387 361.847 324.96 360.78 323.84C359.713 322.72 358.367 322.16 356.74 322.16C355.087 322.16 353.727 322.72 352.66 323.84C351.62 324.933 351.1 326.347 351.1 328.08C351.1 329.813 351.62 331.24 352.66 332.36C353.727 333.453 355.087 334 356.74 334ZM372.354 346.8V318.16H376.914L377.474 321C378.114 320.12 378.954 319.347 379.994 318.68C381.061 318.013 382.434 317.68 384.114 317.68C385.981 317.68 387.647 318.133 389.114 319.04C390.581 319.947 391.741 321.187 392.594 322.76C393.447 324.333 393.874 326.12 393.874 328.12C393.874 330.12 393.447 331.907 392.594 333.48C391.741 335.027 390.581 336.253 389.114 337.16C387.647 338.04 385.981 338.48 384.114 338.48C382.621 338.48 381.314 338.2 380.194 337.64C379.074 337.08 378.167 336.293 377.474 335.28V346.8H372.354ZM383.034 334C384.661 334 386.007 333.453 387.074 332.36C388.141 331.267 388.674 329.853 388.674 328.12C388.674 326.387 388.141 324.96 387.074 323.84C386.007 322.72 384.661 322.16 383.034 322.16C381.381 322.16 380.021 322.72 378.954 323.84C377.914 324.933 377.394 326.347 377.394 328.08C377.394 329.813 377.914 331.24 378.954 332.36C380.021 333.453 381.381 334 383.034 334ZM398.648 338V309.2H403.768V338H398.648ZM411.959 315.08C411.026 315.08 410.253 314.8 409.639 314.24C409.053 313.68 408.759 312.973 408.759 312.12C408.759 311.267 409.053 310.573 409.639 310.04C410.253 309.48 411.026 309.2 411.959 309.2C412.893 309.2 413.653 309.48 414.239 310.04C414.853 310.573 415.159 311.267 415.159 312.12C415.159 312.973 414.853 313.68 414.239 314.24C413.653 314.8 412.893 315.08 411.959 315.08ZM409.399 338V318.16H414.519V338H409.399ZM429.703 338.48C427.703 338.48 425.93 338.053 424.383 337.2C422.837 336.347 421.623 335.147 420.743 333.6C419.863 332.053 419.423 330.267 419.423 328.24C419.423 326.187 419.85 324.36 420.703 322.76C421.583 321.16 422.783 319.92 424.303 319.04C425.85 318.133 427.663 317.68 429.743 317.68C431.69 317.68 433.41 318.107 434.903 318.96C436.397 319.813 437.557 320.987 438.383 322.48C439.237 323.947 439.663 325.587 439.663 327.4C439.663 327.693 439.65 328 439.623 328.32C439.623 328.64 439.61 328.973 439.583 329.32H424.503C424.61 330.867 425.143 332.08 426.103 332.96C427.09 333.84 428.277 334.28 429.663 334.28C430.703 334.28 431.57 334.053 432.263 333.6C432.983 333.12 433.517 332.507 433.863 331.76H439.063C438.69 333.013 438.063 334.16 437.183 335.2C436.33 336.213 435.263 337.013 433.983 337.6C432.73 338.187 431.303 338.48 429.703 338.48ZM429.743 321.84C428.49 321.84 427.383 322.2 426.423 322.92C425.463 323.613 424.85 324.68 424.583 326.12H434.463C434.383 324.813 433.903 323.773 433.023 323C432.143 322.227 431.05 321.84 429.743 321.84ZM453.29 338.48C451.423 338.48 449.756 338.027 448.29 337.12C446.823 336.213 445.663 334.973 444.81 333.4C443.956 331.827 443.53 330.04 443.53 328.04C443.53 326.04 443.956 324.267 444.81 322.72C445.663 321.147 446.823 319.92 448.29 319.04C449.756 318.133 451.423 317.68 453.29 317.68C454.783 317.68 456.09 317.96 457.21 318.52C458.33 319.08 459.236 319.867 459.93 320.88V309.2H465.05V338H460.49L459.93 335.16C459.29 336.04 458.436 336.813 457.37 337.48C456.33 338.147 454.97 338.48 453.29 338.48ZM454.37 334C456.023 334 457.37 333.453 458.41 332.36C459.476 331.24 460.01 329.813 460.01 328.08C460.01 326.347 459.476 324.933 458.41 323.84C457.37 322.72 456.023 322.16 454.37 322.16C452.743 322.16 451.396 322.707 450.33 323.8C449.263 324.893 448.73 326.307 448.73 328.04C448.73 329.773 449.263 331.2 450.33 332.32C451.396 333.44 452.743 334 454.37 334Z" fill="black"/>
<path d="M111.838 398V375.84L107.238 376.92V373L113.998 370H117.158V398H111.838ZM134.267 398.48C131.681 398.48 129.467 397.88 127.627 396.68C125.787 395.453 124.361 393.76 123.347 391.6C122.361 389.413 121.867 386.88 121.867 384C121.867 381.147 122.361 378.627 123.347 376.44C124.361 374.253 125.787 372.56 127.627 371.36C129.467 370.133 131.681 369.52 134.267 369.52C136.854 369.52 139.067 370.133 140.907 371.36C142.747 372.56 144.161 374.253 145.147 376.44C146.161 378.627 146.667 381.147 146.667 384C146.667 386.88 146.161 389.413 145.147 391.6C144.161 393.76 142.747 395.453 140.907 396.68C139.067 397.88 136.854 398.48 134.267 398.48ZM134.267 393.88C136.374 393.88 138.094 393 139.427 391.24C140.761 389.48 141.427 387.067 141.427 384C141.427 380.933 140.761 378.52 139.427 376.76C138.094 375 136.374 374.12 134.267 374.12C132.134 374.12 130.401 375 129.067 376.76C127.761 378.52 127.107 380.933 127.107 384C127.107 387.067 127.761 389.48 129.067 391.24C130.401 393 132.134 393.88 134.267 393.88ZM162.866 398.48C160.279 398.48 158.066 397.88 156.226 396.68C154.386 395.453 152.959 393.76 151.946 391.6C150.959 389.413 150.466 386.88 150.466 384C150.466 381.147 150.959 378.627 151.946 376.44C152.959 374.253 154.386 372.56 156.226 371.36C158.066 370.133 160.279 369.52 162.866 369.52C165.452 369.52 167.666 370.133 169.506 371.36C171.346 372.56 172.759 374.253 173.746 376.44C174.759 378.627 175.266 381.147 175.266 384C175.266 386.88 174.759 389.413 173.746 391.6C172.759 393.76 171.346 395.453 169.506 396.68C167.666 397.88 165.452 398.48 162.866 398.48ZM162.866 393.88C164.972 393.88 166.692 393 168.026 391.24C169.359 389.48 170.026 387.067 170.026 384C170.026 380.933 169.359 378.52 168.026 376.76C166.692 375 164.972 374.12 162.866 374.12C160.732 374.12 158.999 375 157.666 376.76C156.359 378.52 155.706 380.933 155.706 384C155.706 387.067 156.359 389.48 157.666 391.24C158.999 393 160.732 393.88 162.866 393.88ZM176.613 402.64L178.893 392.68H183.853L179.973 402.64H176.613ZM199.711 398.48C197.124 398.48 194.911 397.88 193.071 396.68C191.231 395.453 189.804 393.76 188.791 391.6C187.804 389.413 187.311 386.88 187.311 384C187.311 381.147 187.804 378.627 188.791 376.44C189.804 374.253 191.231 372.56 193.071 371.36C194.911 370.133 197.124 369.52 199.711 369.52C202.298 369.52 204.511 370.133 206.351 371.36C208.191 372.56 209.604 374.253 210.591 376.44C211.604 378.627 212.111 381.147 212.111 384C212.111 386.88 211.604 389.413 210.591 391.6C209.604 393.76 208.191 395.453 206.351 396.68C204.511 397.88 202.298 398.48 199.711 398.48ZM199.711 393.88C201.818 393.88 203.538 393 204.871 391.24C206.204 389.48 206.871 387.067 206.871 384C206.871 380.933 206.204 378.52 204.871 376.76C203.538 375 201.818 374.12 199.711 374.12C197.578 374.12 195.844 375 194.511 376.76C193.204 378.52 192.551 380.933 192.551 384C192.551 387.067 193.204 389.48 194.511 391.24C195.844 393 197.578 393.88 199.711 393.88ZM228.309 398.48C225.723 398.48 223.509 397.88 221.669 396.68C219.829 395.453 218.403 393.76 217.389 391.6C216.403 389.413 215.909 386.88 215.909 384C215.909 381.147 216.403 378.627 217.389 376.44C218.403 374.253 219.829 372.56 221.669 371.36C223.509 370.133 225.723 369.52 228.309 369.52C230.896 369.52 233.109 370.133 234.949 371.36C236.789 372.56 238.203 374.253 239.189 376.44C240.203 378.627 240.709 381.147 240.709 384C240.709 386.88 240.203 389.413 239.189 391.6C238.203 393.76 236.789 395.453 234.949 396.68C233.109 397.88 230.896 398.48 228.309 398.48ZM228.309 393.88C230.416 393.88 232.136 393 233.469 391.24C234.803 389.48 235.469 387.067 235.469 384C235.469 380.933 234.803 378.52 233.469 376.76C232.136 375 230.416 374.12 228.309 374.12C226.176 374.12 224.443 375 223.109 376.76C221.803 378.52 221.149 380.933 221.149 384C221.149 387.067 221.803 389.48 223.109 391.24C224.443 393 226.176 393.88 228.309 393.88ZM256.908 398.48C254.321 398.48 252.108 397.88 250.268 396.68C248.428 395.453 247.001 393.76 245.988 391.6C245.001 389.413 244.508 386.88 244.508 384C244.508 381.147 245.001 378.627 245.988 376.44C247.001 374.253 248.428 372.56 250.268 371.36C252.108 370.133 254.321 369.52 256.908 369.52C259.494 369.52 261.708 370.133 263.548 371.36C265.388 372.56 266.801 374.253 267.788 376.44C268.801 378.627 269.308 381.147 269.308 384C269.308 386.88 268.801 389.413 267.788 391.6C266.801 393.76 265.388 395.453 263.548 396.68C261.708 397.88 259.494 398.48 256.908 398.48ZM256.908 393.88C259.014 393.88 260.734 393 262.068 391.24C263.401 389.48 264.068 387.067 264.068 384C264.068 380.933 263.401 378.52 262.068 376.76C260.734 375 259.014 374.12 256.908 374.12C254.774 374.12 253.041 375 251.708 376.76C250.401 378.52 249.748 380.933 249.748 384C249.748 387.067 250.401 389.48 251.708 391.24C253.041 393 254.774 393.88 256.908 393.88ZM270.655 402.64L272.935 392.68H277.895L274.015 402.64H270.655ZM293.753 398.48C291.166 398.48 288.953 397.88 287.113 396.68C285.273 395.453 283.846 393.76 282.833 391.6C281.846 389.413 281.353 386.88 281.353 384C281.353 381.147 281.846 378.627 282.833 376.44C283.846 374.253 285.273 372.56 287.113 371.36C288.953 370.133 291.166 369.52 293.753 369.52C296.34 369.52 298.553 370.133 300.393 371.36C302.233 372.56 303.646 374.253 304.633 376.44C305.646 378.627 306.153 381.147 306.153 384C306.153 386.88 305.646 389.413 304.633 391.6C303.646 393.76 302.233 395.453 300.393 396.68C298.553 397.88 296.34 398.48 293.753 398.48ZM293.753 393.88C295.86 393.88 297.58 393 298.913 391.24C300.246 389.48 300.913 387.067 300.913 384C300.913 380.933 300.246 378.52 298.913 376.76C297.58 375 295.86 374.12 293.753 374.12C291.62 374.12 289.886 375 288.553 376.76C287.246 378.52 286.593 380.933 286.593 384C286.593 387.067 287.246 389.48 288.553 391.24C289.886 393 291.62 393.88 293.753 393.88ZM322.352 398.48C319.765 398.48 317.552 397.88 315.712 396.68C313.872 395.453 312.445 393.76 311.432 391.6C310.445 389.413 309.952 386.88 309.952 384C309.952 381.147 310.445 378.627 311.432 376.44C312.445 374.253 313.872 372.56 315.712 371.36C317.552 370.133 319.765 369.52 322.352 369.52C324.938 369.52 327.152 370.133 328.992 371.36C330.832 372.56 332.245 374.253 333.232 376.44C334.245 378.627 334.752 381.147 334.752 384C334.752 386.88 334.245 389.413 333.232 391.6C332.245 393.76 330.832 395.453 328.992 396.68C327.152 397.88 324.938 398.48 322.352 398.48ZM322.352 393.88C324.458 393.88 326.178 393 327.512 391.24C328.845 389.48 329.512 387.067 329.512 384C329.512 380.933 328.845 378.52 327.512 376.76C326.178 375 324.458 374.12 322.352 374.12C320.218 374.12 318.485 375 317.152 376.76C315.845 378.52 315.192 380.933 315.192 384C315.192 387.067 315.845 389.48 317.152 391.24C318.485 393 320.218 393.88 322.352 393.88ZM350.95 398.48C348.363 398.48 346.15 397.88 344.31 396.68C342.47 395.453 341.043 393.76 340.03 391.6C339.043 389.413 338.55 386.88 338.55 384C338.55 381.147 339.043 378.627 340.03 376.44C341.043 374.253 342.47 372.56 344.31 371.36C346.15 370.133 348.363 369.52 350.95 369.52C353.537 369.52 355.75 370.133 357.59 371.36C359.43 372.56 360.843 374.253 361.83 376.44C362.843 378.627 363.35 381.147 363.35 384C363.35 386.88 362.843 389.413 361.83 391.6C360.843 393.76 359.43 395.453 357.59 396.68C355.75 397.88 353.537 398.48 350.95 398.48ZM350.95 393.88C353.057 393.88 354.777 393 356.11 391.24C357.443 389.48 358.11 387.067 358.11 384C358.11 380.933 357.443 378.52 356.11 376.76C354.777 375 353.057 374.12 350.95 374.12C348.817 374.12 347.083 375 345.75 376.76C344.443 378.52 343.79 380.933 343.79 384C343.79 387.067 344.443 389.48 345.75 391.24C347.083 393 348.817 393.88 350.95 393.88ZM364.698 402.64L366.978 392.68H371.938L368.058 402.64H364.698ZM387.795 398.48C385.209 398.48 382.995 397.88 381.155 396.68C379.315 395.453 377.889 393.76 376.875 391.6C375.889 389.413 375.395 386.88 375.395 384C375.395 381.147 375.889 378.627 376.875 376.44C377.889 374.253 379.315 372.56 381.155 371.36C382.995 370.133 385.209 369.52 387.795 369.52C390.382 369.52 392.595 370.133 394.435 371.36C396.275 372.56 397.689 374.253 398.675 376.44C399.689 378.627 400.195 381.147 400.195 384C400.195 386.88 399.689 389.413 398.675 391.6C397.689 393.76 396.275 395.453 394.435 396.68C392.595 397.88 390.382 398.48 387.795 398.48ZM387.795 393.88C389.902 393.88 391.622 393 392.955 391.24C394.289 389.48 394.955 387.067 394.955 384C394.955 380.933 394.289 378.52 392.955 376.76C391.622 375 389.902 374.12 387.795 374.12C385.662 374.12 383.929 375 382.595 376.76C381.289 378.52 380.635 380.933 380.635 384C380.635 387.067 381.289 389.48 382.595 391.24C383.929 393 385.662 393.88 387.795 393.88ZM416.394 398.48C413.807 398.48 411.594 397.88 409.754 396.68C407.914 395.453 406.487 393.76 405.474 391.6C404.487 389.413 403.994 386.88 403.994 384C403.994 381.147 404.487 378.627 405.474 376.44C406.487 374.253 407.914 372.56 409.754 371.36C411.594 370.133 413.807 369.52 416.394 369.52C418.98 369.52 421.194 370.133 423.034 371.36C424.874 372.56 426.287 374.253 427.274 376.44C428.287 378.627 428.794 381.147 428.794 384C428.794 386.88 428.287 389.413 427.274 391.6C426.287 393.76 424.874 395.453 423.034 396.68C421.194 397.88 418.98 398.48 416.394 398.48ZM416.394 393.88C418.5 393.88 420.22 393 421.554 391.24C422.887 389.48 423.554 387.067 423.554 384C423.554 380.933 422.887 378.52 421.554 376.76C420.22 375 418.5 374.12 416.394 374.12C414.26 374.12 412.527 375 411.194 376.76C409.887 378.52 409.234 380.933 409.234 384C409.234 387.067 409.887 389.48 411.194 391.24C412.527 393 414.26 393.88 416.394 393.88ZM444.992 398.48C442.406 398.48 440.192 397.88 438.352 396.68C436.512 395.453 435.086 393.76 434.072 391.6C433.086 389.413 432.592 386.88 432.592 384C432.592 381.147 433.086 378.627 434.072 376.44C435.086 374.253 436.512 372.56 438.352 371.36C440.192 370.133 442.406 369.52 444.992 369.52C447.579 369.52 449.792 370.133 451.632 371.36C453.472 372.56 454.886 374.253 455.872 376.44C456.886 378.627 457.392 381.147 457.392 384C457.392 386.88 456.886 389.413 455.872 391.6C454.886 393.76 453.472 395.453 451.632 396.68C449.792 397.88 447.579 398.48 444.992 398.48ZM444.992 393.88C447.099 393.88 448.819 393 450.152 391.24C451.486 389.48 452.152 387.067 452.152 384C452.152 380.933 451.486 378.52 450.152 376.76C448.819 375 447.099 374.12 444.992 374.12C442.859 374.12 441.126 375 439.792 376.76C438.486 378.52 437.832 380.933 437.832 384C437.832 387.067 438.486 389.48 439.792 391.24C441.126 393 442.859 393.88 444.992 393.88ZM479.682 401.48V398.4C477.095 398.107 474.989 397.2 473.362 395.68C471.735 394.16 470.895 392.12 470.842 389.56H476.242C476.295 390.627 476.615 391.56 477.202 392.36C477.815 393.16 478.642 393.707 479.682 394V385.56C479.442 385.48 479.189 385.4 478.922 385.32C478.682 385.24 478.429 385.16 478.162 385.08C476.002 384.333 474.349 383.373 473.202 382.2C472.082 381.027 471.522 379.467 471.522 377.52C471.495 375.227 472.242 373.387 473.762 372C475.282 370.587 477.255 369.773 479.682 369.56V366.32H482.362V369.6C484.762 369.84 486.695 370.68 488.162 372.12C489.655 373.533 490.442 375.36 490.522 377.6H485.042C485.015 376.827 484.762 376.12 484.282 375.48C483.829 374.813 483.189 374.347 482.362 374.08V381.52C482.575 381.6 482.789 381.68 483.002 381.76C483.215 381.813 483.429 381.88 483.642 381.96C485.029 382.44 486.295 383 487.442 383.64C488.589 384.28 489.509 385.133 490.202 386.2C490.895 387.24 491.242 388.587 491.242 390.24C491.242 391.627 490.895 392.92 490.202 394.12C489.535 395.32 488.535 396.32 487.202 397.12C485.895 397.893 484.282 398.333 482.362 398.44V401.48H479.682ZM476.882 377.16C476.882 378.013 477.135 378.707 477.642 379.24C478.149 379.747 478.829 380.187 479.682 380.56V373.92C478.855 374.08 478.175 374.44 477.642 375C477.135 375.56 476.882 376.28 476.882 377.16ZM485.802 390.6C485.802 389.533 485.482 388.693 484.842 388.08C484.202 387.467 483.375 386.947 482.362 386.52V394.12C483.429 393.96 484.269 393.573 484.882 392.96C485.495 392.347 485.802 391.56 485.802 390.6ZM507.549 398.48C506.056 398.48 504.749 398.2 503.629 397.64C502.509 397.08 501.602 396.293 500.909 395.28L500.349 398H495.789V369.2H500.909V381C501.549 380.12 502.389 379.347 503.429 378.68C504.496 378.013 505.869 377.68 507.549 377.68C509.416 377.68 511.082 378.133 512.549 379.04C514.016 379.947 515.176 381.187 516.029 382.76C516.882 384.333 517.309 386.12 517.309 388.12C517.309 390.12 516.882 391.907 516.029 393.48C515.176 395.027 514.016 396.253 512.549 397.16C511.082 398.04 509.416 398.48 507.549 398.48ZM506.469 394C508.096 394 509.442 393.453 510.509 392.36C511.576 391.267 512.109 389.853 512.109 388.12C512.109 386.387 511.576 384.96 510.509 383.84C509.442 382.72 508.096 382.16 506.469 382.16C504.816 382.16 503.456 382.72 502.389 383.84C501.349 384.933 500.829 386.347 500.829 388.08C500.829 389.813 501.349 391.24 502.389 392.36C503.456 393.453 504.816 394 506.469 394ZM529.523 398.48C527.043 398.48 525.123 397.707 523.763 396.16C522.429 394.613 521.763 392.347 521.763 389.36V378.16H526.843V388.88C526.843 390.587 527.189 391.893 527.883 392.8C528.576 393.707 529.669 394.16 531.163 394.16C532.576 394.16 533.736 393.653 534.643 392.64C535.576 391.627 536.043 390.213 536.043 388.4V378.16H541.163V398H536.643L536.243 394.64C535.629 395.813 534.736 396.747 533.563 397.44C532.416 398.133 531.069 398.48 529.523 398.48ZM546.619 398V369.2H551.739V398H546.619ZM557.17 398V369.2H562.29V398H557.17Z" fill="black"/>
</svg>
